<?xml version="1.0" encoding="utf-8"?>
<!-- Generator: Adobe Illustrator 25.2.0, SVG Export Plug-In . SVG Version: 6.00 Build 0)  -->
<svg version="1.1" id="Medium_Image" xmlns="http://www.w3.org/2000/svg" xmlns:xlink="http://www.w3.org/1999/xlink" x="0px"
	 y="0px" viewBox="0 0 240 240" style="enable-background:new 0 0 240 240;" xml:space="preserve">
<style type="text/css">
	.st0{fill:#34E0A1;}
</style>
<g>
	<circle class="st0" cx="120" cy="120" r="120"/>
	<path d="M194.1,96.6l14.5-15.8h-32.1c-16.1-11-35.5-17.4-56.5-17.4c-21,0-40.3,6.4-56.4,17.4H31.4l14.5,15.8
		c-8.9,8.1-14.4,19.8-14.4,32.7c0,24.4,19.8,44.3,44.3,44.3c11.6,0,22.2-4.5,30.1-11.8l14.2,15.4l14.2-15.4
		c7.9,7.3,18.5,11.8,30.1,11.8c24.4,0,44.3-19.8,44.3-44.3C208.6,116.3,203,104.7,194.1,96.6z M75.7,159.3c-16.5,0-30-13.4-30-30
		s13.4-30,30-30s30,13.4,30,30S92.3,159.3,75.7,159.3z M120,128.4c0-19.7-14.3-36.6-33.3-43.9c10.2-4.3,21.5-6.7,33.2-6.7
		s23,2.4,33.3,6.7C134.3,91.8,120,108.7,120,128.4z M164.3,159.3c-16.5,0-30-13.4-30-30s13.4-30,30-30s30,13.4,30,30
		S180.8,159.3,164.3,159.3z M164.3,113.6c-8.7,0-15.7,7-15.7,15.7c0,8.7,7,15.7,15.7,15.7c8.7,0,15.7-7,15.7-15.7
		C180,120.6,172.9,113.6,164.3,113.6z M91.4,129.3c0,8.7-7,15.7-15.7,15.7S60,138,60,129.3c0-8.7,7-15.7,15.7-15.7
		C84.4,113.6,91.4,120.6,91.4,129.3z"/>
</g>
</svg>
