<?xml version="1.0" encoding="utf-8"?>
<!-- Generator: Adobe Illustrator 25.2.0, SVG Export Plug-In . SVG Version: 6.00 Build 0)  -->
<svg version="1.1" id="Smallbros_Image" xmlns="http://www.w3.org/2000/svg" xmlns:xlink="http://www.w3.org/1999/xlink" x="0px"
	 y="0px" viewBox="0 0 707.8 131" style="enable-background:new 0 0 707.8 131;" xml:space="preserve">
<style type="text/css">
	.st0{enable-background:new    ;}
	.st1{fill:#A8A0ED;}
</style>
<g class="st0">
	<path class="st1" d="M25.4,81.4H9.7l-3.9-3.9h19.6V81.4z M17.5,35L8.2,75.5h19.1v4.9h7.3v-4.9h5.1v-6.2h-5.1V58.3h-7.3V70H16.9
		l7.8-35H17.5z M31.1,37c-3,13.3-5.3,23.7-6.9,31.1h-4.8l7.8-35L31.1,37z M40.5,86.3v-4.9h5.1V71.3l-3.9-3.9v10.1h-5.1v5H25.4
		l3.9,3.9H40.5z M36.6,56.3l3.9,3.9v7.1h-3.9V56.3z"/>
	<path class="st1" d="M67,82.3l-1.8,4.1H51.9L48,82.4h13.2l1.8-4.1h15l1.7,3.9H67z M81.2,80.6l-1.8-4.1H61.8L60,80.6h-9l19.5-43.1
		l19.5,43.1H81.2z M78,71.2l-7.4-17l-7.4,17H78z M73.4,65.4l-1.6,3.7h-5.6L70.6,59L73.4,65.4z M83.8,86.3H97L74.5,36.5l-3.9-3.9
		l22.5,49.9H79.9L83.8,86.3z"/>
	<path class="st1" d="M106,35.9l18.5,25.3l-1.2,1.5L101,32L106,35.9z M116.6,86.3h-11.7l-3.9-3.9h11.7V65.5l3.9,5.7V86.3z
		 M143.6,80.6V38.2l-20.3,28l-20.3-28v42.5h7.8V59.4l12.6,18.4l12.5-18.4v21.3H143.6z M133.9,65.5l-10.6,15.5l3.9,3.9l6.7-9.8V65.5z
		 M149.5,86.3h-11.7l-3.9-3.9h11.6V32l3.9,3.9V86.3z"/>
	<path class="st1" d="M213.1,77.4c-3.3,2.3-6.9,3.6-10.9,4.1c-4.4,0.5-8.7-0.1-12.9-2c-4.2-1.8-7.5-4.6-10-8.2
		c-2.7-3.8-4-8.2-4-13.1c0-4.9,1.3-9.2,4-13.1c2.5-3.6,5.9-6.3,10-8.2c4.2-1.8,8.5-2.5,12.9-2c4,0.5,7.6,1.8,10.9,4.1l-5.5,5.4
		c-2.1-1.4-4.4-2.2-6.9-2.4c-2.9-0.3-5.6,0.3-8.2,1.6c-2.6,1.3-4.7,3.3-6.3,5.7c-1.6,2.6-2.5,5.6-2.5,8.8c0,3.3,0.8,6.2,2.5,8.8
		c1.5,2.5,3.6,4.4,6.3,5.7c2.6,1.3,5.3,1.9,8.2,1.7c2.5-0.2,4.8-1,6.9-2.5L213.1,77.4z M216.1,77.4c-4.7,3.8-9.9,5.8-15.5,6
		c-5.6,0.2-10.9-1.2-16.1-4.4l4.7,4.4c4.9,3,10.2,4.3,15.7,4c5.5-0.4,10.6-2.4,15.1-6L216.1,77.4z M192.1,70.2
		c-2.1-2.2-3-4.9-2.8-8.3c0.2-3.1,1.3-6,3.3-8.7c2.1-2.8,4.6-4.6,7.6-5.3c3.4-0.9,6.8-0.2,10.2,2l1.1,1.1l8.5-8.3l-4.1-3.7l-0.1,0.1
		l-8.2,8c-1.9-1.9-4.3-3-7.2-3.2c-3.5-0.3-6.7,0.7-9.6,3c-2.9,2.4-4.6,5.5-5.2,9.3c-0.1,0.6-0.1,1.2-0.1,1.9c0,2.9,0.7,5.5,2.2,7.8
		C188.9,67.6,190.4,69.1,192.1,70.2z"/>
	<path class="st1" d="M272.6,58.1c0,7.4-2.5,13.2-7.5,17.5c-4.6,3.9-10.2,5.9-16.9,5.9c-6.6,0-12.2-2-16.8-5.9
		c-5-4.3-7.5-10.2-7.5-17.5c0-7.4,2.5-13.3,7.5-17.6c4.6-3.9,10.2-5.8,16.8-5.8c6.7,0,12.3,1.9,16.9,5.8
		C270.1,44.8,272.6,50.7,272.6,58.1z M268.2,40.7c3,3.3,4.9,7.1,5.8,11.5c1.3,6.8,0.5,12.9-2.4,18.1c-2.6,4.8-6.5,8.3-11.8,10.6
		c-5.1,2.3-10.4,3-16.1,2.1c-5.9-0.9-10.9-3.4-15.1-7.5l3.9,3.9c3.8,3.8,8.5,6.2,14,7.2c5.3,1,10.4,0.7,15.4-1.1
		c5.2-1.9,9.3-4.9,12.2-9.1c3.2-4.7,4.6-10.3,4.2-16.8c-0.3-4.3-1.3-7.8-3.1-10.7C274.1,47,271.8,44.3,268.2,40.7z M232.9,58.1
		c0,5,1.6,9.1,4.8,12.1c2.8,2.7,6.3,4.1,10.4,4.1c4.2,0,7.7-1.3,10.5-4c3.2-3,4.7-7.1,4.7-12.2c0-5-1.6-9.1-4.7-12.1
		c-2.9-2.7-6.4-4.1-10.5-4.1c-4.1,0-7.6,1.4-10.5,4.1C234.4,49,232.9,53,232.9,58.1z M261.1,51.1c-1.8-1.6-3.8-2.7-5.9-3.2
		c-3.5-0.8-6.6-0.5-9.3,1c-2.5,1.3-4.4,3.4-5.7,6.2c-1.3,2.7-1.8,5.6-1.4,8.6c0.4,3.2,1.6,5.9,3.6,8.3l-3.9-3.9
		c-3.4-3.6-4.5-8.1-3.3-13.6c1.2-5.8,4.4-9.3,9.8-10.5c3.6-0.8,6.9-0.4,9.8,1.4c1.2,0.8,3.6,2.8,7,6.2L261.1,51.1z"/>
	<path class="st1" d="M311.8,52.2l3.9,3.9v11.1h-15v19.1h-12.4l-3.9-3.9h12.3V63.3h15.1V52.2z M309.8,54.3h-15V42.4h16.9v-7.2h-25.3
		v45.4h8.5V61.5h15V54.3z M300.6,48h16.9V37l-3.9-3.9v11.1h-16.9v8h3.9V48z"/>
	<path class="st1" d="M349.6,52.2l3.9,3.9v11.1h-15v19.1h-12.4l-3.9-3.9h12.3V63.3h15.1V52.2z M347.6,54.3h-15V42.4h16.9v-7.2h-25.3
		v45.4h8.5V61.5h15V54.3z M338.5,48h16.9V37l-3.9-3.9v11.1h-16.9v8h3.9V48z"/>
	<path class="st1" d="M363.9,86.3l-3.9-3.9h31V71.3l3.9,3.9v11.1H363.9z M386.4,61.5h-15.9v11.9h18.7v7.2H362V35.2h26.2v7.2h-17.7
		v11.9h15.9V61.5z M376.3,52.2h-3.9v-8h17.8V33.1l3.9,3.9V48h-17.7V52.2z M388.4,63.3h-16v8h3.9v-4.2h15.9V56.1l-3.9-3.9V63.3z"/>
	<path class="st1" d="M404.9,86.3l-3.9-3.9h31V71.3l3.9,3.9v11.1H404.9z M427.4,61.5h-15.9v11.9h18.7v7.2H403V35.2h26.2v7.2h-17.7
		v11.9h15.9V61.5z M417.3,52.2h-3.9v-8h17.8V33.1l3.9,3.9V48h-17.7V52.2z M429.4,63.3h-16v8h3.9v-4.2h15.9V56.1l-3.9-3.9V63.3z"/>
	<path class="st1" d="M478.2,86.3h-12.4l-3.9-3.9h12.3V70h6.9c2.4,0,4.7-0.4,6.8-1.1c4.7-1.6,8.3-4.8,10.6-9.6
		c1.6-3.2,2.1-6.5,1.6-10.1c-0.4-3.7-2-7-4.6-9.9c3.4,3.4,5.5,5.9,6.5,7.6c1.7,2.9,2.4,6.3,2,10.3c-0.4,4.7-2.5,8.6-6.1,11.8
		c-3.6,3.2-7.9,4.8-12.9,4.8h-6.9V86.3z M463.9,80.6V35.2h17.3c4.8,0,8.9,1.7,12.3,5.1c3.2,3.2,4.8,7,4.8,11.5
		c0,4.4-1.6,8.2-4.8,11.4c-3.4,3.4-7.5,5.1-12.3,5.1h-8.9v12.4H463.9z M481.2,61.1c2.3,0,4.2-0.9,6-2.6c1.9-1.8,2.8-4.1,2.8-6.8
		c0-2.7-0.9-5-2.8-6.8c-1.7-1.7-3.7-2.6-5.9-2.6h-8.9v18.7H481.2z M487.4,48.5c-0.5-1.2-1.3-2.2-2.5-3c-1.2-0.9-2.4-1.3-3.7-1.3
		h-6.9v14.8h3.9V48h6.9C486,48.1,486.7,48.2,487.4,48.5z"/>
	<path class="st1" d="M541.4,35.2V66c0,4.1-1.5,7.6-4.4,10.5c-3.1,3.1-6.9,4.7-11.4,4.7s-8.3-1.6-11.4-4.7c-3-3-4.4-6.5-4.4-10.5
		V35.2h8.5V66c0,2.3,0.8,4.3,2.4,5.9c1.4,1.4,3.1,2.1,5,2.1c1.9,0,3.6-0.7,5-2.1c1.6-1.6,2.4-3.6,2.4-5.9V35.2H541.4z M543.4,65.8
		c0,3.6-1,6.8-3.1,9.7c-1.1,1.6-2.5,3-4.1,4.2c-2.1,1.5-4.4,2.6-7,3c-2.3,0.5-4.6,0.5-6.9,0c-3.6-0.6-6.8-2.3-9.5-5l3.9,3.9
		c2.8,2.7,6,4.4,9.6,5c3.4,0.6,6.7,0.3,10-1c3.2-1.3,5.8-3.3,7.8-6c2.1-2.9,3.2-6.2,3.2-9.9V37l-3.9-3.9V65.8z M520.1,33.1L524,37
		l0.1,34.1l0.3,0.7c-0.7-0.2-1.4-0.5-2-1c-1.5-1.5-2.3-3.2-2.3-4.9V33.1z"/>
	<path class="st1" d="M566.9,82.4V61.3l3.9,3.9v21.1h-12.3l-3.9-3.9H566.9z M560.7,34.5l21.1,19.1l0,1.8L556.5,32L560.7,34.5z
		 M583.2,35.2v23.3l-26.7-22.6v44.7h8.5V57.3l26.7,22.6V35.2H583.2z M593.6,33l3.9,3.9v50.9l-3.9-3.9V33z"/>
	<path class="st1" d="M621.1,86.3h-12.3l-3.9-3.9h12.3v-23l3.9,5V86.3z M615.3,80.6V35.2h-8.5v45.4H615.3z M617.2,33.1l3.9,3.9v12.9
		l-3.9,5.1V33.1z M636.2,80.6h10l-18.8-23.3L645,35.2h-10l-17.1,22.1L636.2,80.6z M639.1,86.3l-3.9-3.9h15l-20.3-25.2v0L649,33.1
		l3.9,3.9l-18,22.6l21.1,26.7H639.1z"/>
	<path class="st1" d="M684.8,46.4c-0.4-1.3-1.3-2.3-2.5-3.2c-1.5-1-3.3-1.6-5.5-1.6c-2.1,0-3.9,0.5-5.5,1.5c-1.9,1.2-2.9,3-2.9,5.1
		c0,2.4,1.8,4.2,5.3,5.4c0.9,0.3,2.3,0.7,4.3,1.2c2.1,0.5,3.6,0.9,4.6,1.2c3.6,1.1,6.2,2.4,8,4c2.2,2,3.3,4.8,3.3,8.2
		c0,4.2-1.8,7.5-5.4,10c-3.4,2.4-7.6,3.5-12.6,3.6c-4.9,0-9.1-1.2-12.5-3.5c-3.1-2.1-4.8-4.9-5.3-8.4l9.8-0.3
		c0.5,1.4,1.3,2.6,2.6,3.5c1.5,1.1,3.4,1.6,5.5,1.6c2.1,0,3.9-0.5,5.5-1.4c1.9-1.2,2.9-2.9,2.9-5c0-2.3-1.7-4-5.2-5.4
		c-0.8-0.3-2.2-0.7-4.3-1.3c-2-0.6-3.6-1-4.6-1.4c-3.6-1.2-6.3-2.6-8.1-4.2c-2.2-2-3.3-4.6-3.3-7.8c0-4.2,1.7-7.5,5.2-10
		c3.3-2.4,7.4-3.6,12.2-3.6c4.8,0,8.8,1.1,12.1,3.3c2.8,2,4.5,4.5,5,7.6L684.8,46.4z M674,65.8l8.8,2.7c0.1-1.2-0.6-2.3-2.1-3.1
		c-1-0.6-2.9-1.3-5.7-2.1c-6.8-2-11.4-4-13.7-6.1c2.8,2.8,4.8,4.6,5.7,5.3C668.5,63.6,670.9,64.7,674,65.8z M666.5,83.7l-5-4.8
		c3.2,2.6,7.2,4.1,12,4.6c4.6,0.4,8.8-0.1,12.7-1.8c3.9-1.6,6.7-4.1,8.5-7.4c1.8-3.5,2.1-7.2,0.7-11.1l-1.9-3.4
		c2.7,2.7,4.3,4.6,5,5.5c1.2,2,1.8,4.5,1.6,7.6c-0.2,3.4-1.5,6.3-3.9,8.8c-2.2,2.2-5.1,3.8-8.7,4.8c-3.5,1-7.1,1.2-10.8,0.7
		C672.8,86.8,669.4,85.6,666.5,83.7z M669.9,67.3l4,4.8C671.5,71.4,670.1,69.8,669.9,67.3z M683.2,47.6c-0.2-1.2-0.8-2.2-1.9-3
		c-1.5-1.1-3.2-1.5-5.1-1.2c-1.7,0.2-3.1,0.8-4.3,1.8c-1.2,1.1-1.6,2.2-1.2,3.3c0.4,1.3,1.7,2.3,3.9,3c0.1-1.6,1.1-2.8,3-3.6
		C679.3,47.3,681.2,47.2,683.2,47.6z M684.6,48.2l-1.4,0.1l4,4l12.7-1.2c-0.2-2.8-0.9-5.1-2.1-7c-0.9-1.4-2.3-2.9-4.4-4.5
		c1.6,2.2,2.4,4.7,2.5,7.6L684.6,48.2z"/>
</g>
</svg>
