<?xml version="1.0" encoding="utf-8"?>
<!-- Generator: Adobe Illustrator 25.2.0, SVG Export Plug-In . SVG Version: 6.00 Build 0)  -->
<svg version="1.1" id="Layer_1" xmlns="http://www.w3.org/2000/svg" xmlns:xlink="http://www.w3.org/1999/xlink" x="0px" y="0px"
	 viewBox="0 0 242.2 26.6" style="enable-background:new 0 0 242.2 26.6;" xml:space="preserve">
<style type="text/css">
	.st0{fill:#FFFFFF;}
</style>
<g>
	<path class="st0" d="M8.2,18.5c-0.1,1-0.5,1.7-1.2,2.2c-0.6,0.5-1.4,0.7-2.3,0.7c-0.9,0-1.7-0.3-2.4-0.8c-0.8-0.5-1.3-1.2-1.6-2.1
		c0.1,0.2,0.2,0.5,0.4,0.7c0.3,0.4,0.7,0.7,1.3,1c0.7,0.5,1.6,0.5,2.7,0.2c0.1,0,0.2,0,0.2-0.1c0.6-0.2,1.1-0.6,1.4-1
		c0.3-0.5,0.5-1,0.6-1.6L8.2,18.5z M5.3,17.8c-0.1,0.4-0.4,0.7-0.8,0.8c-0.2,0.1-0.4,0.1-0.6,0.1c-0.2,0-0.4,0-0.6-0.1
		c-0.6-0.2-0.8-0.6-0.8-1.3c0-0.5,0.1-0.9,0.4-1.2c0.1-0.2,0.4-0.3,0.7-0.5c0.6-0.3,0.9-0.5,1.1-0.7c0.3-0.3,0.4-0.7,0.4-1.2v-0.7
		H3.6v0.7c0,0.3-0.2,0.5-0.7,0.7c-0.6,0.3-1.1,0.6-1.3,0.9C1.2,15.9,1,16.6,1,17.4C1,18,1.2,18.6,1.5,19c0.3,0.4,0.7,0.7,1.3,0.9
		c0.4,0.1,0.8,0.2,1.2,0.2c0.4,0,0.8-0.1,1.2-0.2c0.5-0.2,1-0.5,1.3-0.9c0.3-0.3,0.4-0.7,0.5-1.2H5.3z M5.5,16.6
		c0.6-0.4,0.9-0.9,1-1.6l-0.8-0.8c0,0.1,0,0.3-0.1,0.4c0,0,0,0.1,0,0.1l0,0l0,0v0c-0.2,0.5-0.5,0.9-1,1.2c-0.2,0.1-0.4,0.2-0.6,0.3
		c-0.1,0-0.2,0.1-0.3,0.1c-0.3,0.2-0.5,0.6-0.6,1l0.8,0.8c0-0.3,0.1-0.5,0.3-0.7C4.1,17.5,4.5,17.2,5.5,16.6z M4.8,12.1
		C5,12.1,5.2,12,5.3,11.8c0.2-0.2,0.4-0.5,0.4-0.8l0.8,0.8c-0.1,0.6-0.4,1-0.9,1.1v-0.2H4.5c-0.1,0-0.1-0.1-0.2-0.2
		c-0.5-0.5-0.8-0.7-0.9-0.9l0,0C3.6,12,3.8,12.1,4,12.1C4.3,12.2,4.5,12.2,4.8,12.1z M5,11.5c0.2-0.2,0.3-0.4,0.3-0.6
		c0-0.3-0.1-0.5-0.3-0.6C4.8,10.1,4.6,10,4.4,10c-0.3,0-0.5,0.1-0.6,0.3c-0.2,0.2-0.3,0.4-0.3,0.6c0,0.2,0.1,0.5,0.3,0.6
		c0.2,0.2,0.4,0.3,0.6,0.3C4.6,11.8,4.8,11.7,5,11.5z M5,17.6c0-0.1,0-0.1,0-0.2L5,17.6z"/>
	<path class="st0" d="M20,18.6l-5.6-1.3h0c-1.4-0.1-2.5-0.6-3.4-1.4c-1-0.9-1.5-2.1-1.5-3.7c0-1.6,0.5-2.9,1.6-3.8
		c1-0.8,2.2-1.3,3.6-1.3c1.4,0,2.7,0.4,3.7,1.3c1.1,0.9,1.6,2.2,1.6,3.8c0,1.6-0.6,3-1.8,3.9l-0.7,0.5l2.8,0.7L20,18.6z M10.7,16.2
		c0.1,0,0.1,0.1,0.2,0.1c0.3,0.3,0.8,0.6,1.2,0.8c0.3,0.1,1.2,0.3,2.7,0.7l5.5,1.3l0.6-2l0.9,0.9l-0.6,2c-4-0.9-6-1.4-6.2-1.4
		c-0.9-0.1-1.7-0.3-2.4-0.7C12.1,17.5,11.5,17,10.7,16.2z M11.5,12.2c0,1.1,0.3,2,1,2.6c0.6,0.6,1.4,0.9,2.3,0.9
		c0.9,0,1.7-0.3,2.3-0.9c0.7-0.7,1-1.5,1-2.6c0-1.1-0.3-2-1-2.6c-0.6-0.6-1.4-0.9-2.3-0.9c-0.9,0-1.6,0.3-2.3,0.9
		C11.8,10.3,11.5,11.2,11.5,12.2z M17.2,10.4c-0.1-0.1-0.1-0.2-0.2-0.3c-0.4-0.5-0.9-0.8-1.5-0.9c-0.2,0-0.4-0.1-0.7-0.1
		c-0.3,0-0.6,0-0.9,0.1c-0.9,0.3-1.5,0.9-1.8,1.8c-0.3,0.9-0.3,1.8,0.1,2.6c0.1,0.3,0.4,0.6,0.7,0.9c0.1,0.1,0.2,0.2,0.3,0.2
		c-0.2-0.3-0.3-0.6-0.4-1c-0.2-0.7-0.1-1.4,0.1-2.1c0.2-0.6,0.6-1,1.1-1.4c0.5-0.3,1-0.5,1.6-0.5C16.1,9.9,16.7,10.1,17.2,10.4z
		 M19.3,8.7c0.4,0.5,0.7,1.1,0.9,1.8c0.3,1,0.3,2.1,0.1,3c-0.3,1.2-0.9,2.1-1.8,2.9l1.4,0.3c1.3-1.4,1.8-3.1,1.3-5.1
		C21,10.7,20.4,9.7,19.3,8.7z"/>
	<path class="st0" d="M29.6,7.4V14c0,0.9-0.3,1.6-1,2.3c-0.7,0.7-1.5,1-2.5,1s-1.8-0.3-2.5-1c-0.6-0.6-1-1.4-1-2.3V7.4h1.8V14
		c0,0.5,0.2,0.9,0.5,1.3c0.3,0.3,0.7,0.5,1.1,0.5c0.4,0,0.8-0.2,1.1-0.5c0.3-0.3,0.5-0.8,0.5-1.3V7.4H29.6z M30,14
		c0,0.8-0.2,1.5-0.7,2.1c-0.2,0.4-0.5,0.7-0.9,0.9c-0.5,0.3-1,0.6-1.5,0.7c-0.5,0.1-1,0.1-1.5,0c-0.8-0.1-1.5-0.5-2.1-1.1l0.8,0.8
		c0.6,0.6,1.3,1,2.1,1.1c0.7,0.1,1.5,0.1,2.2-0.2c0.7-0.3,1.3-0.7,1.7-1.3c0.5-0.6,0.7-1.3,0.7-2.1V7.7L30,6.9V14z M25,6.9l0.9,0.8
		l0,7.4l0.1,0.2c-0.2,0-0.3-0.1-0.4-0.2C25.2,14.7,25,14.4,25,14V6.9z"/>
	<path class="st0" d="M33.3,18.4l-0.8-0.8h6.7v-2.4L40,16v2.4H33.3z M38.2,13h-3.5v2.6h4v1.6h-5.9V7.3h5.7v1.6h-3.8v2.6h3.5V13z
		 M37.6,6.9l2.3-2.8l-0.8-0.8l-2.6,3.1h-2.2l0.5,0.5H37.6z M38.2,3.7L36.3,6H35l1.6-2.3H38.2z M36,11h-0.9V9.3H39V6.9l0.8,0.8v2.4
		H36V11z M38.6,13.4h-3.5v1.7H36v-0.9h3.5v-2.4L38.6,11V13.4z"/>
	<path class="st0" d="M51.6,9.8c-0.1-0.3-0.3-0.5-0.5-0.7c-0.3-0.2-0.7-0.3-1.2-0.3c-0.5,0-0.9,0.1-1.2,0.3C48.2,9.3,48,9.7,48,10.2
		c0,0.5,0.4,0.9,1.2,1.2c0.2,0.1,0.5,0.2,0.9,0.3c0.4,0.1,0.8,0.2,1,0.3c0.8,0.2,1.4,0.5,1.7,0.9c0.5,0.4,0.7,1,0.7,1.8
		c0,0.9-0.4,1.6-1.2,2.2c-0.7,0.5-1.6,0.8-2.7,0.8c-1.1,0-2-0.3-2.7-0.8c-0.7-0.5-1-1.1-1.1-1.8l2.1-0.1c0.1,0.3,0.3,0.6,0.6,0.8
		c0.3,0.2,0.7,0.3,1.2,0.3c0.5,0,0.8-0.1,1.2-0.3c0.4-0.3,0.6-0.6,0.6-1.1c0-0.5-0.4-0.9-1.1-1.2c-0.2-0.1-0.5-0.2-0.9-0.3
		c-0.4-0.1-0.8-0.2-1-0.3c-0.8-0.3-1.4-0.6-1.8-0.9c-0.5-0.4-0.7-1-0.7-1.7c0-0.9,0.4-1.6,1.1-2.2c0.7-0.5,1.6-0.8,2.6-0.8
		c1,0,1.9,0.2,2.6,0.7c0.6,0.4,1,1,1.1,1.6L51.6,9.8z M49.2,14l1.9,0.6c0-0.3-0.1-0.5-0.5-0.7c-0.2-0.1-0.6-0.3-1.2-0.5
		c-1.5-0.4-2.5-0.9-3-1.3c0.6,0.6,1,1,1.2,1.2C48,13.5,48.5,13.8,49.2,14z M47.6,17.9l-1.1-1c0.7,0.6,1.6,0.9,2.6,1
		c1,0.1,1.9,0,2.7-0.4c0.8-0.3,1.5-0.9,1.8-1.6c0.4-0.7,0.4-1.5,0.2-2.4l-0.4-0.7c0.6,0.6,0.9,1,1.1,1.2c0.3,0.4,0.4,1,0.3,1.6
		c0,0.7-0.3,1.4-0.8,1.9c-0.5,0.5-1.1,0.8-1.9,1c-0.8,0.2-1.5,0.3-2.3,0.2C49,18.5,48.2,18.3,47.6,17.9z M48.3,14.3l0.9,1
		C48.7,15.2,48.4,14.9,48.3,14.3z M51.2,10.1c0-0.3-0.2-0.5-0.4-0.7c-0.3-0.2-0.7-0.3-1.1-0.3c-0.4,0-0.7,0.2-0.9,0.4
		c-0.3,0.2-0.3,0.5-0.3,0.7c0.1,0.3,0.4,0.5,0.9,0.7c0-0.4,0.2-0.6,0.6-0.8C50.4,10,50.8,10,51.2,10.1z M51.5,10.2l-0.3,0l0.9,0.9
		l2.8-0.3c0-0.6-0.2-1.1-0.5-1.5c-0.2-0.3-0.5-0.6-0.9-1c0.3,0.5,0.5,1,0.5,1.6L51.5,10.2z"/>
	<path class="st0" d="M66.6,12.3c0,1.6-0.5,2.9-1.6,3.8c-1,0.8-2.2,1.3-3.7,1.3c-1.4,0-2.6-0.4-3.6-1.3c-1.1-0.9-1.6-2.2-1.6-3.8
		c0-1.6,0.5-2.9,1.6-3.8c1-0.8,2.2-1.3,3.6-1.3c1.4,0,2.7,0.4,3.7,1.3C66.1,9.4,66.6,10.7,66.6,12.3z M65.7,8.6
		c0.7,0.7,1.1,1.5,1.2,2.5c0.3,1.5,0.1,2.8-0.5,3.9c-0.6,1-1.4,1.8-2.6,2.3c-1.1,0.5-2.3,0.6-3.5,0.5c-1.3-0.2-2.4-0.7-3.3-1.6
		l0.8,0.8c0.8,0.8,1.8,1.3,3,1.6c1.1,0.2,2.3,0.1,3.3-0.2c1.1-0.4,2-1.1,2.6-2c0.7-1,1-2.2,0.9-3.6c-0.1-0.9-0.3-1.7-0.7-2.3
		C67,9.9,66.4,9.3,65.7,8.6z M58,12.3c0,1.1,0.3,2,1,2.6c0.6,0.6,1.4,0.9,2.3,0.9c0.9,0,1.7-0.3,2.3-0.9c0.7-0.7,1-1.5,1-2.6
		c0-1.1-0.3-2-1-2.6c-0.6-0.6-1.4-0.9-2.3-0.9c-0.9,0-1.6,0.3-2.3,0.9C58.4,10.4,58,11.2,58,12.3z M64.1,10.8
		c-0.4-0.4-0.8-0.6-1.3-0.7c-0.8-0.2-1.4-0.1-2,0.2c-0.5,0.3-1,0.7-1.2,1.3c-0.3,0.6-0.4,1.2-0.3,1.9c0.1,0.7,0.3,1.3,0.8,1.8
		l-0.8-0.8c-0.7-0.8-1-1.7-0.7-2.9c0.3-1.2,1-2,2.1-2.3c0.8-0.2,1.5-0.1,2.1,0.3c0.3,0.2,0.8,0.6,1.5,1.4L64.1,10.8z"/>
	<path class="st0" d="M71.8,17.6V13l0.8,0.9v4.6H70l-0.8-0.8H71.8z M70.5,7.2l4.6,4.1l0,0.4l-5.5-5.1L70.5,7.2z M75.4,7.4v5
		l-5.8-4.9v9.7h1.8v-5.1l5.8,4.9V7.4H75.4z M77.6,6.9l0.8,0.8v11l-0.8-0.9V6.9z"/>
	<path class="st0" d="M85.2,18.4l-0.8-0.8h7.5v-2.4l0.9,0.8v2.4H85.2z M86.6,7.4v8.3h4.8v1.6h-6.6V7.4H86.6z M87,15.2h0.9V7.8
		L87,6.9V15.2z"/>
	<path class="st0" d="M102.4,12.3c0,1.6-0.5,2.9-1.6,3.8c-1,0.8-2.2,1.3-3.7,1.3c-1.4,0-2.6-0.4-3.6-1.3c-1.1-0.9-1.6-2.2-1.6-3.8
		c0-1.6,0.5-2.9,1.6-3.8c1-0.8,2.2-1.3,3.6-1.3c1.4,0,2.7,0.4,3.7,1.3C101.9,9.4,102.4,10.7,102.4,12.3z M101.5,8.6
		c0.7,0.7,1.1,1.5,1.2,2.5c0.3,1.5,0.1,2.8-0.5,3.9c-0.6,1-1.4,1.8-2.6,2.3c-1.1,0.5-2.3,0.6-3.5,0.5c-1.3-0.2-2.4-0.7-3.3-1.6
		l0.8,0.8c0.8,0.8,1.8,1.3,3,1.6c1.1,0.2,2.3,0.1,3.3-0.2c1.1-0.4,2-1.1,2.6-2c0.7-1,1-2.2,0.9-3.6c-0.1-0.9-0.3-1.7-0.7-2.3
		C102.7,9.9,102.2,9.3,101.5,8.6z M93.8,12.3c0,1.1,0.3,2,1,2.6c0.6,0.6,1.4,0.9,2.3,0.9c0.9,0,1.7-0.3,2.3-0.9c0.7-0.7,1-1.5,1-2.6
		c0-1.1-0.3-2-1-2.6c-0.6-0.6-1.4-0.9-2.3-0.9c-0.9,0-1.6,0.3-2.3,0.9C94.1,10.4,93.8,11.2,93.8,12.3z M99.9,10.8
		c-0.4-0.4-0.8-0.6-1.3-0.7c-0.8-0.2-1.4-0.1-2,0.2c-0.5,0.3-1,0.7-1.2,1.3c-0.3,0.6-0.4,1.2-0.3,1.9c0.1,0.7,0.3,1.3,0.8,1.8
		L95,14.5c-0.7-0.8-1-1.7-0.7-2.9c0.3-1.2,1-2,2.1-2.3c0.8-0.2,1.5-0.1,2.1,0.3c0.3,0.2,0.8,0.6,1.5,1.4L99.9,10.8z"/>
	<path class="st0" d="M110.6,9.8c-0.1-0.3-0.3-0.5-0.5-0.7c-0.3-0.2-0.7-0.3-1.2-0.3c-0.5,0-0.9,0.1-1.2,0.3
		c-0.4,0.3-0.6,0.6-0.6,1.1c0,0.5,0.4,0.9,1.2,1.2c0.2,0.1,0.5,0.2,0.9,0.3c0.4,0.1,0.8,0.2,1,0.3c0.8,0.2,1.4,0.5,1.7,0.9
		c0.5,0.4,0.7,1,0.7,1.8c0,0.9-0.4,1.6-1.2,2.2c-0.7,0.5-1.6,0.8-2.7,0.8c-1.1,0-2-0.3-2.7-0.8c-0.7-0.5-1-1.1-1.1-1.8l2.1-0.1
		c0.1,0.3,0.3,0.6,0.6,0.8c0.3,0.2,0.7,0.3,1.2,0.3c0.5,0,0.8-0.1,1.2-0.3c0.4-0.3,0.6-0.6,0.6-1.1c0-0.5-0.4-0.9-1.1-1.2
		c-0.2-0.1-0.5-0.2-0.9-0.3c-0.4-0.1-0.8-0.2-1-0.3c-0.8-0.3-1.4-0.6-1.8-0.9c-0.5-0.4-0.7-1-0.7-1.7c0-0.9,0.4-1.6,1.1-2.2
		c0.7-0.5,1.6-0.8,2.6-0.8c1,0,1.9,0.2,2.6,0.7c0.6,0.4,1,1,1.1,1.6L110.6,9.8z M108.2,14l1.9,0.6c0-0.3-0.1-0.5-0.5-0.7
		c-0.2-0.1-0.6-0.3-1.2-0.5c-1.5-0.4-2.5-0.9-3-1.3c0.6,0.6,1,1,1.2,1.2C107.1,13.5,107.6,13.8,108.2,14z M106.6,17.9l-1.1-1
		c0.7,0.6,1.6,0.9,2.6,1c1,0.1,1.9,0,2.7-0.4c0.8-0.3,1.5-0.9,1.8-1.6c0.4-0.7,0.4-1.5,0.2-2.4l-0.4-0.7c0.6,0.6,0.9,1,1.1,1.2
		c0.3,0.4,0.4,1,0.3,1.6c0,0.7-0.3,1.4-0.8,1.9c-0.5,0.5-1.1,0.8-1.9,1c-0.8,0.2-1.5,0.3-2.3,0.2C108,18.5,107.3,18.3,106.6,17.9z
		 M107.4,14.3l0.9,1C107.7,15.2,107.4,14.9,107.4,14.3z M110.2,10.1c0-0.3-0.2-0.5-0.4-0.7c-0.3-0.2-0.7-0.3-1.1-0.3
		c-0.4,0-0.7,0.2-0.9,0.4c-0.3,0.2-0.3,0.5-0.3,0.7c0.1,0.3,0.4,0.5,0.9,0.7c0-0.4,0.2-0.6,0.6-0.8C109.4,10,109.8,10,110.2,10.1z
		 M110.5,10.2l-0.3,0l0.9,0.9l2.8-0.3c0-0.6-0.2-1.1-0.5-1.5c-0.2-0.3-0.5-0.6-0.9-1c0.3,0.5,0.5,1,0.5,1.6L110.5,10.2z"/>
	<path class="st0" d="M127.6,16.5c-0.7,0.5-1.5,0.8-2.4,0.9c-1,0.1-1.9,0-2.8-0.4c-0.9-0.4-1.6-1-2.2-1.8c-0.6-0.8-0.9-1.8-0.9-2.8
		c0-1.1,0.3-2,0.9-2.8c0.5-0.8,1.3-1.4,2.2-1.8c0.9-0.4,1.8-0.5,2.8-0.4c0.9,0.1,1.7,0.4,2.4,0.9l-1.2,1.2c-0.5-0.3-1-0.5-1.5-0.5
		c-0.6-0.1-1.2,0.1-1.8,0.4c-0.6,0.3-1,0.7-1.4,1.2c-0.4,0.6-0.5,1.2-0.5,1.9c0,0.7,0.2,1.3,0.5,1.9c0.3,0.5,0.8,0.9,1.4,1.2
		c0.6,0.3,1.2,0.4,1.8,0.4c0.5,0,1-0.2,1.5-0.5L127.6,16.5z M128.3,16.5c-1,0.8-2.1,1.3-3.4,1.3c-1.2,0.1-2.4-0.3-3.5-1l1,0.9
		c1.1,0.6,2.2,0.9,3.4,0.9c1.2-0.1,2.3-0.5,3.3-1.3L128.3,16.5z M123.1,14.9c-0.4-0.5-0.6-1.1-0.6-1.8c0-0.7,0.3-1.3,0.7-1.9
		c0.5-0.6,1-1,1.6-1.2c0.7-0.2,1.5,0,2.2,0.4l0.2,0.2l1.8-1.8l-0.9-0.8l0,0l-1.8,1.7c-0.4-0.4-0.9-0.6-1.6-0.7
		c-0.8-0.1-1.4,0.1-2.1,0.6c-0.6,0.5-1,1.2-1.1,2c0,0.1,0,0.3,0,0.4c0,0.6,0.2,1.2,0.5,1.7C122.4,14.4,122.7,14.7,123.1,14.9z"/>
	<path class="st0" d="M140.5,12.3c0,1.6-0.5,2.9-1.6,3.8c-1,0.8-2.2,1.3-3.7,1.3c-1.4,0-2.6-0.4-3.6-1.3c-1.1-0.9-1.6-2.2-1.6-3.8
		c0-1.6,0.5-2.9,1.6-3.8c1-0.8,2.2-1.3,3.6-1.3c1.4,0,2.7,0.4,3.7,1.3C140,9.4,140.5,10.7,140.5,12.3z M139.6,8.6
		c0.7,0.7,1.1,1.5,1.2,2.5c0.3,1.5,0.1,2.8-0.5,3.9c-0.6,1-1.4,1.8-2.6,2.3c-1.1,0.5-2.3,0.6-3.5,0.5c-1.3-0.2-2.4-0.7-3.3-1.6
		l0.8,0.8c0.8,0.8,1.8,1.3,3,1.6c1.1,0.2,2.3,0.1,3.3-0.2c1.1-0.4,2-1.1,2.6-2c0.7-1,1-2.2,0.9-3.6c-0.1-0.9-0.3-1.7-0.7-2.3
		C140.8,9.9,140.3,9.3,139.6,8.6z M131.9,12.3c0,1.1,0.3,2,1,2.6c0.6,0.6,1.4,0.9,2.3,0.9c0.9,0,1.7-0.3,2.3-0.9
		c0.7-0.7,1-1.5,1-2.6c0-1.1-0.3-2-1-2.6c-0.6-0.6-1.4-0.9-2.3-0.9c-0.9,0-1.6,0.3-2.3,0.9C132.2,10.4,131.9,11.2,131.9,12.3z
		 M138,10.8c-0.4-0.4-0.8-0.6-1.3-0.7c-0.8-0.2-1.4-0.1-2,0.2c-0.5,0.3-1,0.7-1.2,1.3c-0.3,0.6-0.4,1.2-0.3,1.9
		c0.1,0.7,0.3,1.3,0.8,1.8l-0.8-0.8c-0.7-0.8-1-1.7-0.7-2.9c0.3-1.2,1-2,2.1-2.3c0.8-0.2,1.5-0.1,2.1,0.3c0.3,0.2,0.8,0.6,1.5,1.4
		L138,10.8z"/>
	<path class="st0" d="M149,11l0.8,0.8v2.4h-3.3v4.1h-2.7l-0.8-0.8h2.7v-4.1h3.3V11z M148.6,11.5h-3.3V8.9h3.7V7.4h-5.5v9.8h1.8v-4.1
		h3.3V11.5z M146.6,10.1h3.7V7.7l-0.8-0.8v2.4h-3.7V11h0.9V10.1z"/>
	<path class="st0" d="M157.2,11l0.8,0.8v2.4h-3.3v4.1h-2.7l-0.8-0.8h2.7v-4.1h3.3V11z M156.8,11.5h-3.3V8.9h3.7V7.4h-5.5v9.8h1.8
		v-4.1h3.3V11.5z M154.8,10.1h3.7V7.7l-0.8-0.8v2.4h-3.7V11h0.9V10.1z"/>
	<path class="st0" d="M160.3,18.4l-0.8-0.8h6.7v-2.4L167,16v2.4H160.3z M165.1,13.1h-3.5v2.6h4v1.6h-5.9V7.4h5.7v1.6h-3.8v2.6h3.5
		V13.1z M163,11h-0.9V9.3h3.9V6.9l0.8,0.8v2.4H163V11z M165.6,13.4h-3.5v1.7h0.9v-0.9h3.5v-2.4l-0.8-0.8V13.4z"/>
	<path class="st0" d="M169.2,18.4l-0.8-0.8h6.7v-2.4l0.8,0.8v2.4H169.2z M174,13.1h-3.5v2.6h4v1.6h-5.9V7.4h5.7v1.6h-3.8v2.6h3.5
		V13.1z M171.8,11H171V9.3h3.9V6.9l0.8,0.8v2.4h-3.8V11z M174.5,13.4H171v1.7h0.9v-0.9h3.5v-2.4l-0.8-0.8V13.4z"/>
	<path class="st0" d="M185,18.4h-2.7l-0.8-0.8h2.7v-2.7h1.5c0.5,0,1-0.1,1.5-0.2c1-0.3,1.8-1,2.3-2.1c0.3-0.7,0.5-1.4,0.3-2.2
		c-0.1-0.8-0.4-1.5-1-2.1c0.7,0.7,1.2,1.3,1.4,1.7c0.4,0.6,0.5,1.4,0.4,2.2c-0.1,1-0.5,1.9-1.3,2.6c-0.8,0.7-1.7,1-2.8,1H185V18.4z
		 M181.9,17.2V7.4h3.7c1,0,1.9,0.4,2.7,1.1c0.7,0.7,1,1.5,1,2.5c0,1-0.3,1.8-1,2.5c-0.7,0.7-1.6,1.1-2.7,1.1h-1.9v2.7H181.9z
		 M185.7,13c0.5,0,0.9-0.2,1.3-0.6c0.4-0.4,0.6-0.9,0.6-1.5c0-0.6-0.2-1.1-0.6-1.5c-0.4-0.4-0.8-0.6-1.3-0.6h-1.9v4H185.7z
		 M187,10.2c-0.1-0.3-0.3-0.5-0.5-0.7c-0.3-0.2-0.5-0.3-0.8-0.3h-1.5v3.2h0.9v-2.4h1.5C186.7,10.2,186.9,10.2,187,10.2z"/>
	<path class="st0" d="M198.7,7.4V14c0,0.9-0.3,1.6-1,2.3c-0.7,0.7-1.5,1-2.5,1s-1.8-0.3-2.5-1c-0.6-0.6-1-1.4-1-2.3V7.4h1.8V14
		c0,0.5,0.2,0.9,0.5,1.3c0.3,0.3,0.7,0.5,1.1,0.5s0.8-0.2,1.1-0.5c0.3-0.3,0.5-0.8,0.5-1.3V7.4H198.7z M199.1,14
		c0,0.8-0.2,1.5-0.7,2.1c-0.2,0.4-0.5,0.7-0.9,0.9c-0.5,0.3-1,0.6-1.5,0.7c-0.5,0.1-1,0.1-1.5,0c-0.8-0.1-1.5-0.5-2.1-1.1l0.8,0.8
		c0.6,0.6,1.3,1,2.1,1.1c0.7,0.1,1.5,0.1,2.2-0.2c0.7-0.3,1.3-0.7,1.7-1.3c0.5-0.6,0.7-1.3,0.7-2.1V7.7l-0.8-0.8V14z M194.1,6.9
		l0.9,0.8l0,7.4l0.1,0.2c-0.2,0-0.3-0.1-0.4-0.2c-0.3-0.3-0.5-0.7-0.5-1.1V6.9z"/>
	<path class="st0" d="M204.2,17.6V13l0.8,0.9v4.6h-2.7l-0.8-0.8H204.2z M202.9,7.2l4.6,4.1l0,0.4L202,6.7L202.9,7.2z M207.8,7.4v5
		L202,7.5v9.7h1.8v-5.1l5.8,4.9V7.4H207.8z M210,6.9l0.8,0.8v11l-0.8-0.9V6.9z"/>
	<path class="st0" d="M216,18.4h-2.7l-0.8-0.8h2.7v-5l0.8,1.1V18.4z M214.7,17.2V7.4h-1.8v9.8H214.7z M215.1,6.9l0.8,0.8v2.8
		l-0.8,1.1V6.9z M219.2,17.2h2.2l-4.1-5l3.8-4.8H219l-3.7,4.8L219.2,17.2z M219.9,18.4l-0.8-0.8h3.2l-4.4-5.5v0l4.1-5.2l0.8,0.8
		l-3.9,4.9l4.6,5.8H219.9z"/>
	<path class="st0" d="M229.8,9.8c-0.1-0.3-0.3-0.5-0.5-0.7c-0.3-0.2-0.7-0.3-1.2-0.3c-0.5,0-0.9,0.1-1.2,0.3
		c-0.4,0.3-0.6,0.6-0.6,1.1c0,0.5,0.4,0.9,1.2,1.2c0.2,0.1,0.5,0.2,0.9,0.3c0.4,0.1,0.8,0.2,1,0.3c0.8,0.2,1.4,0.5,1.7,0.9
		c0.5,0.4,0.7,1,0.7,1.8c0,0.9-0.4,1.6-1.2,2.2c-0.7,0.5-1.6,0.8-2.7,0.8c-1.1,0-2-0.3-2.7-0.8c-0.7-0.5-1-1.1-1.1-1.8l2.1-0.1
		c0.1,0.3,0.3,0.6,0.6,0.8c0.3,0.2,0.7,0.3,1.2,0.3c0.5,0,0.8-0.1,1.2-0.3c0.4-0.3,0.6-0.6,0.6-1.1c0-0.5-0.4-0.9-1.1-1.2
		c-0.2-0.1-0.5-0.2-0.9-0.3c-0.4-0.1-0.8-0.2-1-0.3c-0.8-0.3-1.4-0.6-1.8-0.9c-0.5-0.4-0.7-1-0.7-1.7c0-0.9,0.4-1.6,1.1-2.2
		c0.7-0.5,1.6-0.8,2.6-0.8c1,0,1.9,0.2,2.6,0.7c0.6,0.4,1,1,1.1,1.6L229.8,9.8z M227.4,14l1.9,0.6c0-0.3-0.1-0.5-0.5-0.7
		c-0.2-0.1-0.6-0.3-1.2-0.5c-1.5-0.4-2.5-0.9-3-1.3c0.6,0.6,1,1,1.2,1.2C226.2,13.5,226.8,13.8,227.4,14z M225.8,17.9l-1.1-1
		c0.7,0.6,1.6,0.9,2.6,1c1,0.1,1.9,0,2.7-0.4c0.8-0.3,1.5-0.9,1.8-1.6c0.4-0.7,0.4-1.5,0.2-2.4l-0.4-0.7c0.6,0.6,0.9,1,1.1,1.2
		c0.3,0.4,0.4,1,0.3,1.6c0,0.7-0.3,1.4-0.8,1.9c-0.5,0.5-1.1,0.8-1.9,1c-0.8,0.2-1.5,0.3-2.3,0.2C227.2,18.5,226.4,18.3,225.8,17.9z
		 M226.5,14.3l0.9,1C226.9,15.2,226.6,14.9,226.5,14.3z M229.4,10.1c0-0.3-0.2-0.5-0.4-0.7c-0.3-0.2-0.7-0.3-1.1-0.3
		c-0.4,0-0.7,0.2-0.9,0.4c-0.3,0.2-0.3,0.5-0.3,0.7c0.1,0.3,0.4,0.5,0.9,0.7c0-0.4,0.2-0.6,0.6-0.8C228.6,10,229,10,229.4,10.1z
		 M229.7,10.2l-0.3,0l0.9,0.9l2.8-0.3c0-0.6-0.2-1.1-0.5-1.5c-0.2-0.3-0.5-0.6-0.9-1c0.3,0.5,0.5,1,0.5,1.6L229.7,10.2z"/>
	<path class="st0" d="M234.8,10.4L234,9.5h2.5c0-0.3,0.1-0.6,0.3-0.7c0.2-0.2,0.4-0.2,0.7-0.2c0.3,0,0.5,0.1,0.7,0.2
		c0.2,0.2,0.3,0.4,0.3,0.7c-0.3,0-0.6,0-0.8,0.2c-0.2,0.2-0.4,0.4-0.4,0.8H234.8z M236.1,9.1c0.1-0.4,0.4-0.7,0.8-0.9
		c0.2-0.1,0.4-0.1,0.6-0.1c0.2,0,0.4,0,0.6,0.1c0.6,0.2,0.8,0.6,0.8,1.3c0,0.5-0.1,0.9-0.4,1.2c-0.1,0.2-0.4,0.3-0.7,0.5
		c-0.6,0.3-0.9,0.5-1.1,0.7c-0.3,0.3-0.4,0.7-0.4,1.2v0.7h1.6v-0.7c0-0.3,0.2-0.5,0.7-0.7c0.6-0.3,1.1-0.6,1.3-0.9
		c0.4-0.5,0.6-1.1,0.6-2c0-0.6-0.2-1.2-0.5-1.6c-0.3-0.4-0.7-0.7-1.3-0.9c-0.4-0.1-0.8-0.2-1.2-0.2c-0.4,0-0.9,0.1-1.2,0.2
		c-0.6,0.2-1,0.5-1.3,0.9c-0.3,0.4-0.4,0.7-0.5,1.2H236.1z M239.2,15.1c0-0.8,0-1.2,0.1-1.3c0,0,0.2-0.1,0.4-0.2
		c0.3-0.1,0.6-0.3,0.9-0.5c0.9-0.6,1.3-1.5,1.2-2.7c-0.1-1.1-0.5-2-1.4-2.7c0.5,0.7,0.6,1.4,0.5,2.3c-0.1,1-0.5,1.7-1.2,2.2
		c-0.3,0.2-0.6,0.4-0.9,0.5c-0.2,0.1-0.4,0.2-0.4,0.2c-0.1,0.1-0.1,0.5-0.1,1.3h-2.5l0.7,0.7c0.5-0.2,0.9-0.1,1.3,0.1H239.2z
		 M236.4,15.6c-0.2,0.2-0.3,0.4-0.3,0.7s0.1,0.5,0.3,0.7c0.2,0.2,0.4,0.3,0.6,0.3c0.3,0,0.5-0.1,0.7-0.3c0.2-0.2,0.3-0.4,0.3-0.7
		s-0.1-0.5-0.3-0.7c-0.2-0.2-0.4-0.3-0.7-0.3C236.8,15.3,236.6,15.4,236.4,15.6z M238,17.2c-0.5,0.4-1,0.5-1.6,0.2
		c0.5,0.5,0.8,0.8,0.8,0.8c0.3,0.2,0.7,0.3,1.1,0.2c0.5-0.1,0.8-0.5,0.9-0.9c0.1-0.5,0-0.9-0.4-1.3l-0.7-0.7
		c0.1,0.1,0.1,0.2,0.2,0.4C238.6,16.3,238.4,16.8,238,17.2z"/>
</g>
</svg>
