<?xml version="1.0" encoding="utf-8"?>
<!-- Generator: Adobe Illustrator 25.2.0, SVG Export Plug-In . SVG Version: 6.00 Build 0)  -->
<svg version="1.1" id="palm_trees_Image" xmlns="http://www.w3.org/2000/svg" xmlns:xlink="http://www.w3.org/1999/xlink" x="0px"
	 y="0px" viewBox="0 0 208.8 250.6" style="enable-background:new 0 0 208.8 250.6;" xml:space="preserve">
<style type="text/css">
	.st0{clip-path:url(#SVGID_2_);}
	.st1{fill:#C0CCDC;}
	.st2{fill:#8B9BB5;}
	.st3{fill:#A0563D;}
	.st4{fill:#5B6986;}
	.st5{fill:#502A20;}
</style>
<g>
	<defs>
		<rect id="SVGID_1_" x="1" width="207.8" height="250.1"/>
	</defs>
	<clipPath id="SVGID_2_">
		<use xlink:href="#SVGID_1_"  style="overflow:visible;"/>
	</clipPath>
	<g class="st0">
		
			<rect x="102.3" y="121.2" transform="matrix(0.2725 -0.9622 0.9622 0.2725 -43.288 194.4846)" class="st1" width="9.3" height="9.3"/>
		
			<rect x="104.9" y="112.3" transform="matrix(0.2725 -0.9622 0.9622 0.2725 -32.8778 190.4295)" class="st1" width="9.3" height="9.3"/>
		
			<rect x="107.4" y="103.4" transform="matrix(0.2725 -0.9622 0.9622 0.2725 -22.4675 186.3745)" class="st1" width="9.3" height="9.3"/>
		
			<rect x="109.9" y="94.5" transform="matrix(0.2725 -0.9622 0.9622 0.2725 -12.0573 182.3194)" class="st1" width="9.3" height="9.3"/>
		
			<rect x="112.4" y="85.6" transform="matrix(0.2725 -0.9622 0.9622 0.2725 -1.6436 178.263)" class="st1" width="9.3" height="9.3"/>
		<rect x="115" y="76.7" transform="matrix(0.2725 -0.9622 0.9622 0.2725 8.7701 174.2066)" class="st1" width="9.3" height="9.3"/>
		
			<rect x="90.9" y="127.6" transform="matrix(0.2725 -0.9622 0.9622 0.2725 -57.7533 188.1294)" class="st1" width="9.3" height="9.3"/>
		
			<rect x="93.4" y="118.7" transform="matrix(0.2725 -0.9622 0.9622 0.2725 -47.3431 184.0744)" class="st1" width="9.3" height="9.3"/>
		
			<rect x="95.9" y="109.8" transform="matrix(0.2725 -0.9622 0.9622 0.2725 -36.9328 180.0193)" class="st2" width="9.3" height="9.3"/>
		
			<rect x="98.5" y="100.9" transform="matrix(0.2725 -0.9622 0.9622 0.2725 -26.5226 175.9642)" class="st2" width="9.3" height="9.3"/>
		<rect x="101" y="92" transform="matrix(0.2725 -0.9622 0.9622 0.2725 -16.1123 171.9092)" class="st2" width="9.3" height="9.3"/>
		
			<rect x="103.5" y="83.1" transform="matrix(0.2725 -0.9622 0.9622 0.2725 -5.6987 167.8528)" class="st2" width="9.3" height="9.3"/>
		<rect x="106" y="74.1" transform="matrix(0.2725 -0.9622 0.9622 0.2725 4.715 163.7964)" class="st1" width="9.3" height="9.3"/>
		
			<rect x="108.6" y="65.2" transform="matrix(0.2725 -0.9622 0.9622 0.2725 15.1253 159.7413)" class="st1" width="9.3" height="9.3"/>
		
			<rect x="111.1" y="56.3" transform="matrix(0.2725 -0.9622 0.9622 0.2725 25.5355 155.6863)" class="st1" width="9.3" height="9.3"/>
		
			<rect x="79.5" y="134" transform="matrix(0.2725 -0.9622 0.9622 0.2725 -72.222 181.7756)" class="st1" width="9.3" height="9.3"/>
		
			<rect x="82" y="125.1" transform="matrix(0.2725 -0.9622 0.9622 0.2725 -61.8084 177.7192)" class="st1" width="9.3" height="9.3"/>
		
			<rect x="84.5" y="116.2" transform="matrix(0.2725 -0.9622 0.9622 0.2725 -51.3981 173.6641)" class="st2" width="9.3" height="9.3"/>
		
			<rect x="87" y="107.3" transform="matrix(0.2725 -0.9622 0.9622 0.2725 -40.9879 169.6091)" class="st2" width="9.3" height="9.3"/>
		
			<rect x="89.6" y="98.4" transform="matrix(0.2725 -0.9622 0.9622 0.2725 -30.5776 165.554)" class="st2" width="9.3" height="9.3"/>
		
			<rect x="92.1" y="89.5" transform="matrix(0.2725 -0.9622 0.9622 0.2725 -20.1674 161.4989)" class="st2" width="9.3" height="9.3"/>
		
			<rect x="94.6" y="80.5" transform="matrix(0.2725 -0.9622 0.9622 0.2725 -9.7537 157.4426)" class="st2" width="9.3" height="9.3"/>
		<rect x="97.1" y="71.6" transform="matrix(0.2725 -0.9622 0.9622 0.2725 0.66 153.3862)" class="st2" width="9.3" height="9.3"/>
		
			<rect x="99.7" y="62.7" transform="matrix(0.2725 -0.9622 0.9622 0.2725 11.0702 149.3311)" class="st2" width="9.3" height="9.3"/>
		
			<rect x="102.2" y="53.8" transform="matrix(0.2725 -0.9622 0.9622 0.2725 21.4805 145.276)" class="st1" width="9.3" height="9.3"/>
		
			<rect x="104.7" y="44.9" transform="matrix(0.2725 -0.9622 0.9622 0.2725 31.8907 141.221)" class="st1" width="9.3" height="9.3"/>
		
			<rect x="107.2" y="36" transform="matrix(0.2725 -0.9622 0.9622 0.2725 42.3009 137.1659)" class="st1" width="9.3" height="9.3"/>
		
			<rect x="70.5" y="131.5" transform="matrix(0.2725 -0.9622 0.9622 0.2725 -76.2771 171.3653)" class="st1" width="9.3" height="9.3"/>
		
			<rect x="73.1" y="122.6" transform="matrix(0.2725 -0.9622 0.9622 0.2725 -65.8634 167.3089)" class="st1" width="9.3" height="9.3"/>
		
			<rect x="75.6" y="113.7" transform="matrix(0.2725 -0.9622 0.9622 0.2725 -55.4532 163.2539)" class="st2" width="9.3" height="9.3"/>
		
			<rect x="78.1" y="104.8" transform="matrix(0.2725 -0.9622 0.9622 0.2725 -45.0429 159.1988)" class="st2" width="9.3" height="9.3"/>
		
			<rect x="80.6" y="95.8" transform="matrix(0.2725 -0.9622 0.9622 0.2725 -34.6327 155.1438)" class="st2" width="9.3" height="9.3"/>
		
			<rect x="83.2" y="86.9" transform="matrix(0.2725 -0.9622 0.9622 0.2725 -24.2224 151.0887)" class="st2" width="9.3" height="9.3"/>
		
			<rect x="85.7" y="78" transform="matrix(0.2725 -0.9622 0.9622 0.2725 -13.8088 147.0323)" class="st2" width="9.3" height="9.3"/>
		
			<rect x="88.2" y="69.1" transform="matrix(0.2725 -0.9622 0.9622 0.2725 -3.3951 142.9759)" class="st2" width="9.3" height="9.3"/>
		
			<rect x="90.7" y="60.2" transform="matrix(0.2725 -0.9622 0.9622 0.2725 7.0152 138.9209)" class="st2" width="9.3" height="9.3"/>
		
			<rect x="93.3" y="51.3" transform="matrix(0.2725 -0.9622 0.9622 0.2725 17.4254 134.8658)" class="st2" width="9.3" height="9.3"/>
		
			<rect x="95.8" y="42.4" transform="matrix(0.2725 -0.9622 0.9622 0.2725 27.8356 130.8107)" class="st2" width="9.3" height="9.3"/>
		
			<rect x="98.3" y="33.5" transform="matrix(0.2725 -0.9622 0.9622 0.2725 38.2459 126.7557)" class="st1" width="9.3" height="9.3"/>
		
			<rect x="100.8" y="24.5" transform="matrix(0.2725 -0.9622 0.9622 0.2725 48.6561 122.7006)" class="st1" width="9.3" height="9.3"/>
		
			<rect x="23.8" y="262.7" transform="matrix(0.2725 -0.9622 0.9622 0.2725 -236.503 221.7876)" class="st3" width="9.3" height="9.3"/>
		
			<rect x="26.3" y="253.7" transform="matrix(0.2725 -0.9622 0.9622 0.2725 -226.0893 217.7312)" class="st3" width="9.3" height="9.3"/>
		
			<rect x="28.8" y="244.8" transform="matrix(0.2725 -0.9622 0.9622 0.2725 -215.6756 213.6748)" class="st3" width="9.3" height="9.3"/>
		
			<rect x="31.3" y="235.9" transform="matrix(0.2725 -0.9622 0.9622 0.2725 -205.2654 209.6198)" class="st3" width="9.3" height="9.3"/>
		
			<rect x="33.9" y="227" transform="matrix(0.2725 -0.9622 0.9622 0.2725 -194.8551 205.5647)" class="st3" width="9.3" height="9.3"/>
		
			<rect x="36.4" y="218.1" transform="matrix(0.2725 -0.9622 0.9622 0.2725 -184.4449 201.5096)" class="st3" width="9.3" height="9.3"/>
		
			<rect x="38.9" y="209.2" transform="matrix(0.2725 -0.9622 0.9622 0.2725 -174.0346 197.4546)" class="st3" width="9.3" height="9.3"/>
		
			<rect x="41.4" y="200.3" transform="matrix(0.2725 -0.9622 0.9622 0.2725 -163.6244 193.3995)" class="st3" width="9.3" height="9.3"/>
		
			<rect x="44" y="191.4" transform="matrix(0.2725 -0.9622 0.9622 0.2725 -153.2107 189.3431)" class="st3" width="9.3" height="9.3"/>
		
			<rect x="46.5" y="182.4" transform="matrix(0.2725 -0.9622 0.9622 0.2725 -142.797 185.2867)" class="st3" width="9.3" height="9.3"/>
		
			<rect x="49" y="173.5" transform="matrix(0.2725 -0.9622 0.9622 0.2725 -132.3868 181.2317)" class="st3" width="9.3" height="9.3"/>
		
			<rect x="51.5" y="164.6" transform="matrix(0.2725 -0.9622 0.9622 0.2725 -121.9765 177.1766)" class="st3" width="9.3" height="9.3"/>
		
			<rect x="54.1" y="155.7" transform="matrix(0.2725 -0.9622 0.9622 0.2725 -111.5663 173.1216)" class="st3" width="9.3" height="9.3"/>
		
			<rect x="56.6" y="146.8" transform="matrix(0.2725 -0.9622 0.9622 0.2725 -101.1561 169.0665)" class="st3" width="9.3" height="9.3"/>
		
			<rect x="59.1" y="137.9" transform="matrix(0.2725 -0.9622 0.9622 0.2725 -90.7458 165.0115)" class="st3" width="9.3" height="9.3"/>
		
			<rect x="61.6" y="129" transform="matrix(0.2725 -0.9622 0.9622 0.2725 -80.3321 160.9551)" class="st1" width="9.3" height="9.3"/>
		
			<rect x="64.2" y="120.1" transform="matrix(0.2725 -0.9622 0.9622 0.2725 -69.9185 156.8987)" class="st1" width="9.3" height="9.3"/>
		
			<rect x="66.7" y="111.1" transform="matrix(0.2725 -0.9622 0.9622 0.2725 -59.5082 152.8436)" class="st2" width="9.3" height="9.3"/>
		
			<rect x="69.2" y="102.2" transform="matrix(0.2725 -0.9622 0.9622 0.2725 -49.098 148.7886)" class="st2" width="9.3" height="9.3"/>
		
			<rect x="71.7" y="93.3" transform="matrix(0.2725 -0.9622 0.9622 0.2725 -38.6877 144.7335)" class="st2" width="9.3" height="9.3"/>
		
			<rect x="74.3" y="84.4" transform="matrix(0.2725 -0.9622 0.9622 0.2725 -28.2775 140.6785)" class="st2" width="9.3" height="9.3"/>
		
			<rect x="76.8" y="75.5" transform="matrix(0.2725 -0.9622 0.9622 0.2725 -17.8638 136.6221)" class="st2" width="9.3" height="9.3"/>
		
			<rect x="79.3" y="66.6" transform="matrix(0.2725 -0.9622 0.9622 0.2725 -7.4501 132.5657)" class="st2" width="9.3" height="9.3"/>
		
			<rect x="81.8" y="57.7" transform="matrix(0.2725 -0.9622 0.9622 0.2725 2.9601 128.5106)" class="st2" width="9.3" height="9.3"/>
		
			<rect x="84.4" y="48.8" transform="matrix(0.2725 -0.9622 0.9622 0.2725 13.3703 124.4556)" class="st2" width="9.3" height="9.3"/>
		
			<rect x="86.9" y="39.8" transform="matrix(0.2725 -0.9622 0.9622 0.2725 23.7806 120.4005)" class="st2" width="9.3" height="9.3"/>
		
			<rect x="89.4" y="30.9" transform="matrix(0.2725 -0.9622 0.9622 0.2725 34.1908 116.3455)" class="st2" width="9.3" height="9.3"/>
		<rect x="91.9" y="22" transform="matrix(0.2725 -0.9622 0.9622 0.2725 44.6011 112.2904)" class="st1" width="9.3" height="9.3"/>
		
			<rect x="94.4" y="13.1" transform="matrix(0.2725 -0.9622 0.9622 0.2725 55.0147 108.234)" class="st1" width="9.3" height="9.3"/>
		
			<rect x="12.3" y="269" transform="matrix(0.2725 -0.9622 0.9622 0.2725 -250.9682 215.4324)" class="st3" width="9.3" height="9.3"/>
		
			<rect x="14.9" y="260.1" transform="matrix(0.2725 -0.9622 0.9622 0.2725 -240.558 211.3773)" class="st3" width="9.3" height="9.3"/>
		
			<rect x="17.4" y="251.2" transform="matrix(0.2725 -0.9622 0.9622 0.2725 -230.1443 207.321)" class="st3" width="9.3" height="9.3"/>
		
			<rect x="19.9" y="242.3" transform="matrix(0.2725 -0.9622 0.9622 0.2725 -219.7307 203.2646)" class="st3" width="9.3" height="9.3"/>
		
			<rect x="22.4" y="233.4" transform="matrix(0.2725 -0.9622 0.9622 0.2725 -209.3204 199.2095)" class="st3" width="9.3" height="9.3"/>
		
			<rect x="25" y="224.5" transform="matrix(0.2725 -0.9622 0.9622 0.2725 -198.9102 195.1544)" class="st3" width="9.3" height="9.3"/>
		
			<rect x="27.5" y="215.6" transform="matrix(0.2725 -0.9622 0.9622 0.2725 -188.4999 191.0994)" class="st3" width="9.3" height="9.3"/>
		
			<rect x="30" y="206.7" transform="matrix(0.2725 -0.9622 0.9622 0.2725 -178.0897 187.0443)" class="st3" width="9.3" height="9.3"/>
		
			<rect x="32.5" y="197.7" transform="matrix(0.2725 -0.9622 0.9622 0.2725 -167.6794 182.9893)" class="st3" width="9.3" height="9.3"/>
		
			<rect x="35.1" y="188.8" transform="matrix(0.2725 -0.9622 0.9622 0.2725 -157.2658 178.9329)" class="st3" width="9.3" height="9.3"/>
		
			<rect x="37.6" y="179.9" transform="matrix(0.2725 -0.9622 0.9622 0.2725 -146.8521 174.8765)" class="st3" width="9.3" height="9.3"/>
		
			<rect x="40.1" y="171" transform="matrix(0.2725 -0.9622 0.9622 0.2725 -136.4418 170.8214)" class="st3" width="9.3" height="9.3"/>
		
			<rect x="42.6" y="162.1" transform="matrix(0.2725 -0.9622 0.9622 0.2725 -126.0316 166.7664)" class="st3" width="9.3" height="9.3"/>
		
			<rect x="45.2" y="153.2" transform="matrix(0.2725 -0.9622 0.9622 0.2725 -115.6214 162.7113)" class="st3" width="9.3" height="9.3"/>
		
			<rect x="47.7" y="144.3" transform="matrix(0.2725 -0.9622 0.9622 0.2725 -105.2111 158.6563)" class="st3" width="9.3" height="9.3"/>
		
			<rect x="50.2" y="135.4" transform="matrix(0.2725 -0.9622 0.9622 0.2725 -94.8009 154.6012)" class="st3" width="9.3" height="9.3"/>
		
			<rect x="52.7" y="126.4" transform="matrix(0.2725 -0.9622 0.9622 0.2725 -84.3872 150.5448)" class="st1" width="9.3" height="9.3"/>
		
			<rect x="55.2" y="117.5" transform="matrix(0.2725 -0.9622 0.9622 0.2725 -73.9735 146.4884)" class="st1" width="9.3" height="9.3"/>
		
			<rect x="57.8" y="108.6" transform="matrix(0.2725 -0.9622 0.9622 0.2725 -63.5633 142.4334)" class="st2" width="9.3" height="9.3"/>
		
			<rect x="60.3" y="99.7" transform="matrix(0.2725 -0.9622 0.9622 0.2725 -53.153 138.3783)" class="st2" width="9.3" height="9.3"/>
		
			<rect x="62.8" y="90.8" transform="matrix(0.2725 -0.9622 0.9622 0.2725 -42.7428 134.3233)" class="st2" width="9.3" height="9.3"/>
		
			<rect x="65.3" y="81.9" transform="matrix(0.2725 -0.9622 0.9622 0.2725 -32.3326 130.2682)" class="st2" width="9.3" height="9.3"/>
		
			<rect x="67.9" y="73" transform="matrix(0.2725 -0.9622 0.9622 0.2725 -21.9189 126.2118)" class="st2" width="9.3" height="9.3"/>
		
			<rect x="70.4" y="64.1" transform="matrix(0.2725 -0.9622 0.9622 0.2725 -11.5052 122.1554)" class="st2" width="9.3" height="9.3"/>
		
			<rect x="72.9" y="55.1" transform="matrix(0.2725 -0.9622 0.9622 0.2725 -1.095 118.1004)" class="st2" width="9.3" height="9.3"/>
		
			<rect x="75.4" y="46.2" transform="matrix(0.2725 -0.9622 0.9622 0.2725 9.3153 114.0453)" class="st2" width="9.3" height="9.3"/>
		<rect x="78" y="37.3" transform="matrix(0.2725 -0.9622 0.9622 0.2725 19.7255 109.9903)" class="st2" width="9.3" height="9.3"/>
		
			<rect x="80.5" y="28.4" transform="matrix(0.2725 -0.9622 0.9622 0.2725 30.1358 105.9352)" class="st2" width="9.3" height="9.3"/>
		<rect x="83" y="19.5" transform="matrix(0.2725 -0.9622 0.9622 0.2725 40.546 101.8802)" class="st2" width="9.3" height="9.3"/>
		
			<rect x="85.5" y="10.6" transform="matrix(0.2725 -0.9622 0.9622 0.2725 50.9597 97.8238)" class="st1" width="9.3" height="9.3"/>
		
			<rect x="3.4" y="266.5" transform="matrix(0.2725 -0.9622 0.9622 0.2725 -255.0246 205.0187)" class="st3" width="9.3" height="9.3"/>
		
			<rect x="6" y="257.6" transform="matrix(0.2725 -0.9622 0.9622 0.2725 -244.6144 200.9637)" class="st3" width="9.3" height="9.3"/>
		
			<rect x="8.5" y="248.7" transform="matrix(0.2725 -0.9622 0.9622 0.2725 -234.2007 196.9073)" class="st3" width="9.3" height="9.3"/>
		
			<rect x="11" y="239.8" transform="matrix(0.2725 -0.9622 0.9622 0.2725 -223.787 192.8509)" class="st3" width="9.3" height="9.3"/>
		
			<rect x="13.5" y="230.9" transform="matrix(0.2725 -0.9622 0.9622 0.2725 -213.3768 188.7958)" class="st3" width="9.3" height="9.3"/>
		
			<rect x="16" y="222" transform="matrix(0.2725 -0.9622 0.9622 0.2725 -202.9666 184.7408)" class="st3" width="9.3" height="9.3"/>
		
			<rect x="18.6" y="213" transform="matrix(0.2725 -0.9622 0.9622 0.2725 -192.5563 180.6857)" class="st3" width="9.3" height="9.3"/>
		
			<rect x="21.1" y="204.1" transform="matrix(0.2725 -0.9622 0.9622 0.2725 -182.1461 176.6307)" class="st3" width="9.3" height="9.3"/>
		
			<rect x="23.6" y="195.2" transform="matrix(0.2725 -0.9622 0.9622 0.2725 -171.7358 172.5756)" class="st3" width="9.3" height="9.3"/>
		
			<rect x="26.1" y="186.3" transform="matrix(0.2725 -0.9622 0.9622 0.2725 -161.3222 168.5192)" class="st3" width="9.3" height="9.3"/>
		
			<rect x="28.7" y="177.4" transform="matrix(0.2725 -0.9622 0.9622 0.2725 -150.9085 164.4628)" class="st3" width="9.3" height="9.3"/>
		
			<rect x="31.2" y="168.5" transform="matrix(0.2725 -0.9622 0.9622 0.2725 -140.4982 160.4078)" class="st3" width="9.3" height="9.3"/>
		
			<rect x="33.7" y="159.6" transform="matrix(0.2725 -0.9622 0.9622 0.2725 -130.088 156.3527)" class="st3" width="9.3" height="9.3"/>
		
			<rect x="36.2" y="150.7" transform="matrix(0.2725 -0.9622 0.9622 0.2725 -119.6778 152.2977)" class="st3" width="9.3" height="9.3"/>
		
			<rect x="38.8" y="141.7" transform="matrix(0.2725 -0.9622 0.9622 0.2725 -109.2675 148.2426)" class="st3" width="9.3" height="9.3"/>
		
			<rect x="41.3" y="132.8" transform="matrix(0.2725 -0.9622 0.9622 0.2725 -98.8573 144.1875)" class="st3" width="9.3" height="9.3"/>
		
			<rect x="43.8" y="123.9" transform="matrix(0.2725 -0.9622 0.9622 0.2725 -88.4436 140.1311)" class="st1" width="9.3" height="9.3"/>
		
			<rect x="46.3" y="115" transform="matrix(0.2725 -0.9622 0.9622 0.2725 -78.0299 136.0748)" class="st1" width="9.3" height="9.3"/>
		
			<rect x="48.9" y="106.1" transform="matrix(0.2725 -0.9622 0.9622 0.2725 -67.6197 132.0197)" class="st2" width="9.3" height="9.3"/>
		
			<rect x="51.4" y="97.2" transform="matrix(0.2725 -0.9622 0.9622 0.2725 -57.2094 127.9647)" class="st2" width="9.3" height="9.3"/>
		
			<rect x="53.9" y="88.3" transform="matrix(0.2725 -0.9622 0.9622 0.2725 -46.7992 123.9096)" class="st2" width="9.3" height="9.3"/>
		
			<rect x="56.4" y="79.4" transform="matrix(0.2725 -0.9622 0.9622 0.2725 -36.3889 119.8545)" class="st2" width="9.3" height="9.3"/>
		
			<rect x="59" y="70.4" transform="matrix(0.2725 -0.9622 0.9622 0.2725 -25.9753 115.7981)" class="st2" width="9.3" height="9.3"/>
		
			<rect x="61.5" y="61.5" transform="matrix(0.2725 -0.9622 0.9622 0.2725 -15.5616 111.7418)" class="st2" width="9.3" height="9.3"/>
		<rect x="64" y="52.6" transform="matrix(0.2725 -0.9622 0.9622 0.2725 -5.1513 107.6867)" class="st2" width="9.3" height="9.3"/>
		
			<rect x="66.5" y="43.7" transform="matrix(0.2725 -0.9622 0.9622 0.2725 5.2589 103.6316)" class="st2" width="9.3" height="9.3"/>
		<rect x="69" y="34.8" transform="matrix(0.2725 -0.9622 0.9622 0.2725 15.6691 99.5766)" class="st2" width="9.3" height="9.3"/>
		
			<rect x="71.6" y="25.9" transform="matrix(0.2725 -0.9622 0.9622 0.2725 26.0794 95.5215)" class="st4" width="9.3" height="9.3"/>
		<rect x="74.1" y="17" transform="matrix(0.2725 -0.9622 0.9622 0.2725 36.4896 91.4665)" class="st2" width="9.3" height="9.3"/>
		<rect x="76.6" y="8.1" transform="matrix(0.2725 -0.9622 0.9622 0.2725 46.9033 87.4101)" class="st1" width="9.3" height="9.3"/>
		
			<rect x="-3" y="255.1" transform="matrix(0.2725 -0.9622 0.9622 0.2725 -248.6708 190.55)" class="st5" width="9.3" height="9.3"/>
		
			<rect x="-0.4" y="246.2" transform="matrix(0.2725 -0.9622 0.9622 0.2725 -238.2571 186.4936)" class="st5" width="9.3" height="9.3"/>
		
			<rect x="2.1" y="237.3" transform="matrix(0.2725 -0.9622 0.9622 0.2725 -227.8434 182.4372)" class="st5" width="9.3" height="9.3"/>
		
			<rect x="4.6" y="228.3" transform="matrix(0.2725 -0.9622 0.9622 0.2725 -217.4332 178.3822)" class="st5" width="9.3" height="9.3"/>
		
			<rect x="7.1" y="219.4" transform="matrix(0.2725 -0.9622 0.9622 0.2725 -207.0229 174.3271)" class="st5" width="9.3" height="9.3"/>
		
			<rect x="9.7" y="210.5" transform="matrix(0.2725 -0.9622 0.9622 0.2725 -196.6127 170.272)" class="st5" width="9.3" height="9.3"/>
		
			<rect x="12.2" y="201.6" transform="matrix(0.2725 -0.9622 0.9622 0.2725 -186.2025 166.217)" class="st5" width="9.3" height="9.3"/>
		
			<rect x="14.7" y="192.7" transform="matrix(0.2725 -0.9622 0.9622 0.2725 -175.7922 162.1619)" class="st5" width="9.3" height="9.3"/>
		
			<rect x="17.2" y="183.8" transform="matrix(0.2725 -0.9622 0.9622 0.2725 -165.3786 158.1055)" class="st5" width="9.3" height="9.3"/>
		
			<rect x="19.8" y="174.9" transform="matrix(0.2725 -0.9622 0.9622 0.2725 -154.9649 154.0491)" class="st5" width="9.3" height="9.3"/>
		
			<rect x="22.3" y="166" transform="matrix(0.2725 -0.9622 0.9622 0.2725 -144.5546 149.9941)" class="st5" width="9.3" height="9.3"/>
		
			<rect x="24.8" y="157" transform="matrix(0.2725 -0.9622 0.9622 0.2725 -134.1444 145.939)" class="st5" width="9.3" height="9.3"/>
		
			<rect x="27.3" y="148.1" transform="matrix(0.2725 -0.9622 0.9622 0.2725 -123.7341 141.884)" class="st5" width="9.3" height="9.3"/>
		
			<rect x="29.8" y="139.2" transform="matrix(0.2725 -0.9622 0.9622 0.2725 -113.3239 137.8289)" class="st5" width="9.3" height="9.3"/>
		
			<rect x="32.4" y="130.3" transform="matrix(0.2725 -0.9622 0.9622 0.2725 -102.9137 133.7739)" class="st5" width="9.3" height="9.3"/>
		
			<rect x="34.9" y="121.4" transform="matrix(0.2725 -0.9622 0.9622 0.2725 -92.5 129.7175)" class="st1" width="9.3" height="9.3"/>
		
			<rect x="37.4" y="112.5" transform="matrix(0.2725 -0.9622 0.9622 0.2725 -82.0863 125.6611)" class="st1" width="9.3" height="9.3"/>
		
			<rect x="39.9" y="103.6" transform="matrix(0.2725 -0.9622 0.9622 0.2725 -71.6761 121.606)" class="st2" width="9.3" height="9.3"/>
		
			<rect x="42.5" y="94.7" transform="matrix(0.2725 -0.9622 0.9622 0.2725 -61.2658 117.551)" class="st2" width="9.3" height="9.3"/>
		
			<rect x="45" y="85.7" transform="matrix(0.2725 -0.9622 0.9622 0.2725 -50.8556 113.4959)" class="st2" width="9.3" height="9.3"/>
		
			<rect x="47.5" y="76.8" transform="matrix(0.2725 -0.9622 0.9622 0.2725 -40.4453 109.4409)" class="st2" width="9.3" height="9.3"/>
		
			<rect x="50" y="67.9" transform="matrix(0.2725 -0.9622 0.9622 0.2725 -30.0317 105.3845)" class="st2" width="9.3" height="9.3"/>
		<rect x="52.6" y="59" transform="matrix(0.2725 -0.9622 0.9622 0.2725 -19.618 101.3281)" class="st2" width="9.3" height="9.3"/>
		<rect x="55.1" y="50.1" transform="matrix(0.2725 -0.9622 0.9622 0.2725 -9.2077 97.273)" class="st4" width="9.3" height="9.3"/>
		<rect x="57.6" y="41.2" transform="matrix(0.2725 -0.9622 0.9622 0.2725 1.2025 93.218)" class="st4" width="9.3" height="9.3"/>
		
			<rect x="60.1" y="32.3" transform="matrix(0.2725 -0.9622 0.9622 0.2725 11.6127 89.1629)" class="st4" width="9.3" height="9.3"/>
		<rect x="62.7" y="23.4" transform="matrix(0.2725 -0.9622 0.9622 0.2725 22.023 85.1079)" class="st2" width="9.3" height="9.3"/>
		
			<rect x="65.2" y="14.4" transform="matrix(0.2725 -0.9622 0.9622 0.2725 32.4332 81.0528)" class="st1" width="9.3" height="9.3"/>
		<rect x="67.7" y="5.5" transform="matrix(0.2725 -0.9622 0.9622 0.2725 42.8469 76.9964)" class="st1" width="9.3" height="9.3"/>
		
			<rect x="26" y="118.9" transform="matrix(0.2725 -0.9622 0.9622 0.2725 -96.555 119.3072)" class="st1" width="9.3" height="9.3"/>
		
			<rect x="28.5" y="110" transform="matrix(0.2725 -0.9622 0.9622 0.2725 -86.1414 115.2508)" class="st1" width="9.3" height="9.3"/>
		<rect x="31" y="101" transform="matrix(0.2725 -0.9622 0.9622 0.2725 -75.7311 111.1958)" class="st2" width="9.3" height="9.3"/>
		
			<rect x="33.6" y="92.1" transform="matrix(0.2725 -0.9622 0.9622 0.2725 -65.3209 107.1407)" class="st2" width="9.3" height="9.3"/>
		
			<rect x="36.1" y="83.2" transform="matrix(0.2725 -0.9622 0.9622 0.2725 -54.9106 103.0857)" class="st2" width="9.3" height="9.3"/>
		
			<rect x="38.6" y="74.3" transform="matrix(0.2725 -0.9622 0.9622 0.2725 -44.5004 99.0306)" class="st4" width="9.3" height="9.3"/>
		
			<rect x="41.1" y="65.4" transform="matrix(0.2725 -0.9622 0.9622 0.2725 -34.0867 94.9742)" class="st4" width="9.3" height="9.3"/>
		
			<rect x="43.7" y="56.5" transform="matrix(0.2725 -0.9622 0.9622 0.2725 -23.673 90.9178)" class="st4" width="9.3" height="9.3"/>
		
			<rect x="46.2" y="47.6" transform="matrix(0.2725 -0.9622 0.9622 0.2725 -13.2628 86.8628)" class="st4" width="9.3" height="9.3"/>
		
			<rect x="48.7" y="38.7" transform="matrix(0.2725 -0.9622 0.9622 0.2725 -2.8526 82.8077)" class="st2" width="9.3" height="9.3"/>
		<rect x="51.2" y="29.7" transform="matrix(0.2725 -0.9622 0.9622 0.2725 7.5577 78.7527)" class="st2" width="9.3" height="9.3"/>
		
			<rect x="53.7" y="20.8" transform="matrix(0.2725 -0.9622 0.9622 0.2725 17.9679 74.6976)" class="st1" width="9.3" height="9.3"/>
		
			<rect x="56.3" y="11.9" transform="matrix(0.2725 -0.9622 0.9622 0.2725 28.3782 70.6426)" class="st1" width="9.3" height="9.3"/>
		
			<rect x="17.1" y="116.3" transform="matrix(0.2725 -0.9622 0.9622 0.2725 -100.6101 108.897)" class="st1" width="9.3" height="9.3"/>
		
			<rect x="19.6" y="107.4" transform="matrix(0.2725 -0.9622 0.9622 0.2725 -90.1964 104.8406)" class="st1" width="9.3" height="9.3"/>
		
			<rect x="22.1" y="98.5" transform="matrix(0.2725 -0.9622 0.9622 0.2725 -79.7862 100.7855)" class="st2" width="9.3" height="9.3"/>
		
			<rect x="24.6" y="89.6" transform="matrix(0.2725 -0.9622 0.9622 0.2725 -69.3759 96.7305)" class="st2" width="9.3" height="9.3"/>
		
			<rect x="27.2" y="80.7" transform="matrix(0.2725 -0.9622 0.9622 0.2725 -58.9657 92.6754)" class="st4" width="9.3" height="9.3"/>
		
			<rect x="29.7" y="71.8" transform="matrix(0.2725 -0.9622 0.9622 0.2725 -48.5555 88.6204)" class="st4" width="9.3" height="9.3"/>
		
			<rect x="32.2" y="62.9" transform="matrix(0.2725 -0.9622 0.9622 0.2725 -38.1418 84.564)" class="st4" width="9.3" height="9.3"/>
		<rect x="34.7" y="54" transform="matrix(0.2725 -0.9622 0.9622 0.2725 -27.7281 80.5076)" class="st2" width="9.3" height="9.3"/>
		<rect x="37.3" y="45" transform="matrix(0.2725 -0.9622 0.9622 0.2725 -17.3179 76.4525)" class="st2" width="9.3" height="9.3"/>
		
			<rect x="39.8" y="36.1" transform="matrix(0.2725 -0.9622 0.9622 0.2725 -6.9076 72.3975)" class="st1" width="9.3" height="9.3"/>
		<rect x="42.3" y="27.2" transform="matrix(0.2725 -0.9622 0.9622 0.2725 3.5026 68.3424)" class="st1" width="9.3" height="9.3"/>
		
			<rect x="44.8" y="18.3" transform="matrix(0.2725 -0.9622 0.9622 0.2725 13.9129 64.2874)" class="st1" width="9.3" height="9.3"/>
		
			<rect x="10.7" y="104.9" transform="matrix(0.2725 -0.9622 0.9622 0.2725 -94.2515 94.4304)" class="st1" width="9.3" height="9.3"/>
		<rect x="13.2" y="96" transform="matrix(0.2725 -0.9622 0.9622 0.2725 -83.8412 90.3753)" class="st1" width="9.3" height="9.3"/>
		
			<rect x="15.7" y="87.1" transform="matrix(0.2725 -0.9622 0.9622 0.2725 -73.431 86.3202)" class="st2" width="9.3" height="9.3"/>
		
			<rect x="18.3" y="78.2" transform="matrix(0.2725 -0.9622 0.9622 0.2725 -63.0207 82.2652)" class="st2" width="9.3" height="9.3"/>
		
			<rect x="20.8" y="69.3" transform="matrix(0.2725 -0.9622 0.9622 0.2725 -52.6105 78.2101)" class="st2" width="9.3" height="9.3"/>
		
			<rect x="23.3" y="60.3" transform="matrix(0.2725 -0.9622 0.9622 0.2725 -42.1968 74.1537)" class="st2" width="9.3" height="9.3"/>
		
			<rect x="25.8" y="51.4" transform="matrix(0.2725 -0.9622 0.9622 0.2725 -31.7831 70.0974)" class="st1" width="9.3" height="9.3"/>
		
			<rect x="28.4" y="42.5" transform="matrix(0.2725 -0.9622 0.9622 0.2725 -21.3729 66.0423)" class="st1" width="9.3" height="9.3"/>
		
			<rect x="30.9" y="33.6" transform="matrix(0.2725 -0.9622 0.9622 0.2725 -10.9627 61.9872)" class="st1" width="9.3" height="9.3"/>
		
			<rect x="4.3" y="93.5" transform="matrix(0.2725 -0.9622 0.9622 0.2725 -87.8963 79.9651)" class="st1" width="9.3" height="9.3"/>
		<rect x="6.8" y="84.6" transform="matrix(0.2725 -0.9622 0.9622 0.2725 -77.486 75.91)" class="st1" width="9.3" height="9.3"/>
		
			<rect x="9.3" y="75.7" transform="matrix(0.2725 -0.9622 0.9622 0.2725 -67.0758 71.8549)" class="st1" width="9.3" height="9.3"/>
		
			<rect x="11.9" y="66.7" transform="matrix(0.2725 -0.9622 0.9622 0.2725 -56.6656 67.7999)" class="st1" width="9.3" height="9.3"/>
		
			<rect x="14.4" y="57.8" transform="matrix(0.2725 -0.9622 0.9622 0.2725 -46.2519 63.7435)" class="st1" width="9.3" height="9.3"/>
		
			<rect x="16.9" y="48.9" transform="matrix(0.2725 -0.9622 0.9622 0.2725 -35.8382 59.6871)" class="st1" width="9.3" height="9.3"/>
	</g>
</g>
</svg>
