<?xml version="1.0" encoding="utf-8"?>
<!-- Generator: Adobe Illustrator 25.2.0, SVG Export Plug-In . SVG Version: 6.00 Build 0)  -->
<svg version="1.1" id="palm_trees_Image" xmlns="http://www.w3.org/2000/svg" xmlns:xlink="http://www.w3.org/1999/xlink" x="0px"
	 y="0px" viewBox="0 0 190.8 260.6" style="enable-background:new 0 0 190.8 260.6;" xml:space="preserve">
<style type="text/css">
	.st0{clip-path:url(#SVGID_2_);}
	.st1{fill:#C0CCDC;}
	.st2{fill:#8B9BB5;}
	.st3{fill:#A0563D;}
	.st4{fill:#5B6986;}
	.st5{fill:#502A20;}
</style>
<g>
	<defs>
		
			<rect id="SVGID_1_" x="-17" y="10.5" transform="matrix(-1 -4.488821e-11 4.488821e-11 -1 173.7993 271.1546)" width="207.8" height="250.1"/>
	</defs>
	<clipPath id="SVGID_2_">
		<use xlink:href="#SVGID_1_"  style="overflow:visible;"/>
	</clipPath>
	<g class="st0">
		
			<rect x="80.2" y="131.8" transform="matrix(0.9622 -0.2725 0.2725 0.9622 -33.951 28.2772)" class="st1" width="9.3" height="9.3"/>
		
			<rect x="77.7" y="122.8" transform="matrix(0.9622 -0.2725 0.2725 0.9622 -31.6184 27.2523)" class="st1" width="9.3" height="9.3"/>
		
			<rect x="75.2" y="113.9" transform="matrix(0.9622 -0.2725 0.2725 0.9622 -29.2857 26.2275)" class="st1" width="9.3" height="9.3"/>
		<rect x="72.6" y="105" transform="matrix(0.9622 -0.2725 0.2725 0.9622 -26.953 25.2026)" class="st1" width="9.3" height="9.3"/>
		
			<rect x="70.1" y="96.1" transform="matrix(0.9622 -0.2725 0.2725 0.9622 -24.6195 24.1775)" class="st1" width="9.3" height="9.3"/>
		
			<rect x="67.6" y="87.2" transform="matrix(0.9622 -0.2725 0.2725 0.9622 -22.2861 23.1523)" class="st1" width="9.3" height="9.3"/>
		
			<rect x="91.6" y="138.1" transform="matrix(0.9622 -0.2725 0.2725 0.9622 -35.2589 31.6347)" class="st1" width="9.3" height="9.3"/>
		
			<rect x="89.1" y="129.2" transform="matrix(0.9622 -0.2725 0.2725 0.9622 -32.9262 30.6099)" class="st1" width="9.3" height="9.3"/>
		
			<rect x="86.6" y="120.3" transform="matrix(0.9622 -0.2725 0.2725 0.9622 -30.5935 29.585)" class="st2" width="9.3" height="9.3"/>
		
			<rect x="84.1" y="111.4" transform="matrix(0.9622 -0.2725 0.2725 0.9622 -28.2608 28.5602)" class="st2" width="9.3" height="9.3"/>
		
			<rect x="81.5" y="102.5" transform="matrix(0.9622 -0.2725 0.2725 0.9622 -25.9281 27.5353)" class="st2" width="9.3" height="9.3"/>
		<rect x="79" y="93.6" transform="matrix(0.9622 -0.2725 0.2725 0.9622 -23.5947 26.5102)" class="st2" width="9.3" height="9.3"/>
		
			<rect x="76.5" y="84.7" transform="matrix(0.9622 -0.2725 0.2725 0.9622 -21.2612 25.485)" class="st1" width="9.3" height="9.3"/>
		<rect x="74" y="75.8" transform="matrix(0.9622 -0.2725 0.2725 0.9622 -18.9285 24.4601)" class="st1" width="9.3" height="9.3"/>
		
			<rect x="71.5" y="66.8" transform="matrix(0.9622 -0.2725 0.2725 0.9622 -16.5958 23.4353)" class="st1" width="9.3" height="9.3"/>
		
			<rect x="103.1" y="144.5" transform="matrix(0.9622 -0.2725 0.2725 0.9622 -36.5675 34.9926)" class="st1" width="9.3" height="9.3"/>
		
			<rect x="100.6" y="135.6" transform="matrix(0.9622 -0.2725 0.2725 0.9622 -34.234 33.9674)" class="st1" width="9.3" height="9.3"/>
		
			<rect x="98" y="126.7" transform="matrix(0.9622 -0.2725 0.2725 0.9622 -31.9014 32.9426)" class="st2" width="9.3" height="9.3"/>
		
			<rect x="95.5" y="117.8" transform="matrix(0.9622 -0.2725 0.2725 0.9622 -29.5687 31.9177)" class="st2" width="9.3" height="9.3"/>
		<rect x="93" y="108.9" transform="matrix(0.9622 -0.2725 0.2725 0.9622 -27.236 30.8929)" class="st2" width="9.3" height="9.3"/>
		<rect x="90.5" y="100" transform="matrix(0.9622 -0.2725 0.2725 0.9622 -24.9033 29.868)" class="st2" width="9.3" height="9.3"/>
		
			<rect x="87.9" y="91.1" transform="matrix(0.9622 -0.2725 0.2725 0.9622 -22.5698 28.8428)" class="st2" width="9.3" height="9.3"/>
		
			<rect x="85.4" y="82.1" transform="matrix(0.9622 -0.2725 0.2725 0.9622 -20.2364 27.8177)" class="st2" width="9.3" height="9.3"/>
		
			<rect x="82.9" y="73.2" transform="matrix(0.9622 -0.2725 0.2725 0.9622 -17.9037 26.7928)" class="st2" width="9.3" height="9.3"/>
		<rect x="80.4" y="64.3" transform="matrix(0.9622 -0.2725 0.2725 0.9622 -15.571 25.768)" class="st1" width="9.3" height="9.3"/>
		
			<rect x="77.8" y="55.4" transform="matrix(0.9622 -0.2725 0.2725 0.9622 -13.2383 24.7431)" class="st1" width="9.3" height="9.3"/>
		
			<rect x="75.3" y="46.5" transform="matrix(0.9622 -0.2725 0.2725 0.9622 -10.9056 23.7183)" class="st1" width="9.3" height="9.3"/>
		<rect x="112" y="142" transform="matrix(0.9622 -0.2725 0.2725 0.9622 -35.5427 37.3253)" class="st1" width="9.3" height="9.3"/>
		
			<rect x="109.5" y="133.1" transform="matrix(0.9622 -0.2725 0.2725 0.9622 -33.2092 36.3001)" class="st1" width="9.3" height="9.3"/>
		
			<rect x="106.9" y="124.2" transform="matrix(0.9622 -0.2725 0.2725 0.9622 -30.8765 35.2752)" class="st2" width="9.3" height="9.3"/>
		
			<rect x="104.4" y="115.3" transform="matrix(0.9622 -0.2725 0.2725 0.9622 -28.5438 34.2504)" class="st2" width="9.3" height="9.3"/>
		
			<rect x="101.9" y="106.4" transform="matrix(0.9622 -0.2725 0.2725 0.9622 -26.2111 33.2256)" class="st2" width="9.3" height="9.3"/>
		
			<rect x="99.4" y="97.4" transform="matrix(0.9622 -0.2725 0.2725 0.9622 -23.8785 32.2007)" class="st2" width="9.3" height="9.3"/>
		
			<rect x="96.8" y="88.5" transform="matrix(0.9622 -0.2725 0.2725 0.9622 -21.545 31.1755)" class="st2" width="9.3" height="9.3"/>
		
			<rect x="94.3" y="79.6" transform="matrix(0.9622 -0.2725 0.2725 0.9622 -19.2115 30.1503)" class="st2" width="9.3" height="9.3"/>
		
			<rect x="91.8" y="70.7" transform="matrix(0.9622 -0.2725 0.2725 0.9622 -16.8788 29.1255)" class="st2" width="9.3" height="9.3"/>
		
			<rect x="89.3" y="61.8" transform="matrix(0.9622 -0.2725 0.2725 0.9622 -14.5462 28.1007)" class="st2" width="9.3" height="9.3"/>
		
			<rect x="86.8" y="52.9" transform="matrix(0.9622 -0.2725 0.2725 0.9622 -12.2135 27.0758)" class="st2" width="9.3" height="9.3"/>
		<rect x="84.2" y="44" transform="matrix(0.9622 -0.2725 0.2725 0.9622 -9.8808 26.051)" class="st1" width="9.3" height="9.3"/>
		
			<rect x="81.7" y="35.1" transform="matrix(0.9622 -0.2725 0.2725 0.9622 -7.5481 25.0261)" class="st1" width="9.3" height="9.3"/>
		
			<rect x="158.8" y="273.2" transform="matrix(0.9622 -0.2725 0.2725 0.9622 -69.512 55.0323)" class="st3" width="9.3" height="9.3"/>
		
			<rect x="156.2" y="264.3" transform="matrix(0.9622 -0.2725 0.2725 0.9622 -67.1785 54.0071)" class="st3" width="9.3" height="9.3"/>
		
			<rect x="153.7" y="255.3" transform="matrix(0.9622 -0.2725 0.2725 0.9622 -64.8451 52.9819)" class="st3" width="9.3" height="9.3"/>
		
			<rect x="151.2" y="246.4" transform="matrix(0.9622 -0.2725 0.2725 0.9622 -62.5124 51.9571)" class="st3" width="9.3" height="9.3"/>
		
			<rect x="148.7" y="237.5" transform="matrix(0.9622 -0.2725 0.2725 0.9622 -60.1797 50.9322)" class="st3" width="9.3" height="9.3"/>
		
			<rect x="146.1" y="228.6" transform="matrix(0.9622 -0.2725 0.2725 0.9622 -57.847 49.9074)" class="st3" width="9.3" height="9.3"/>
		
			<rect x="143.6" y="219.7" transform="matrix(0.9622 -0.2725 0.2725 0.9622 -55.5143 48.8826)" class="st3" width="9.3" height="9.3"/>
		
			<rect x="141.1" y="210.8" transform="matrix(0.9622 -0.2725 0.2725 0.9622 -53.1816 47.8577)" class="st3" width="9.3" height="9.3"/>
		
			<rect x="138.6" y="201.9" transform="matrix(0.9622 -0.2725 0.2725 0.9622 -50.8482 46.8325)" class="st3" width="9.3" height="9.3"/>
		<rect x="136" y="193" transform="matrix(0.9622 -0.2725 0.2725 0.9622 -48.5147 45.8074)" class="st3" width="9.3" height="9.3"/>
		
			<rect x="133.5" y="184" transform="matrix(0.9622 -0.2725 0.2725 0.9622 -46.182 44.7825)" class="st3" width="9.3" height="9.3"/>
		
			<rect x="131" y="175.1" transform="matrix(0.9622 -0.2725 0.2725 0.9622 -43.8493 43.7577)" class="st3" width="9.3" height="9.3"/>
		
			<rect x="128.5" y="166.2" transform="matrix(0.9622 -0.2725 0.2725 0.9622 -41.5167 42.7328)" class="st3" width="9.3" height="9.3"/>
		
			<rect x="125.9" y="157.3" transform="matrix(0.9622 -0.2725 0.2725 0.9622 -39.184 41.708)" class="st3" width="9.3" height="9.3"/>
		
			<rect x="123.4" y="148.4" transform="matrix(0.9622 -0.2725 0.2725 0.9622 -36.8513 40.6831)" class="st3" width="9.3" height="9.3"/>
		
			<rect x="120.9" y="139.5" transform="matrix(0.9622 -0.2725 0.2725 0.9622 -34.5178 39.658)" class="st1" width="9.3" height="9.3"/>
		
			<rect x="118.4" y="130.6" transform="matrix(0.9622 -0.2725 0.2725 0.9622 -32.1844 38.6328)" class="st1" width="9.3" height="9.3"/>
		
			<rect x="115.9" y="121.7" transform="matrix(0.9622 -0.2725 0.2725 0.9622 -29.8517 37.6079)" class="st2" width="9.3" height="9.3"/>
		
			<rect x="113.3" y="112.7" transform="matrix(0.9622 -0.2725 0.2725 0.9622 -27.519 36.5831)" class="st2" width="9.3" height="9.3"/>
		
			<rect x="110.8" y="103.8" transform="matrix(0.9622 -0.2725 0.2725 0.9622 -25.1863 35.5582)" class="st2" width="9.3" height="9.3"/>
		
			<rect x="108.3" y="94.9" transform="matrix(0.9622 -0.2725 0.2725 0.9622 -22.8536 34.5334)" class="st2" width="9.3" height="9.3"/>
		
			<rect x="105.8" y="86" transform="matrix(0.9622 -0.2725 0.2725 0.9622 -20.5202 33.5082)" class="st2" width="9.3" height="9.3"/>
		
			<rect x="103.2" y="77.1" transform="matrix(0.9622 -0.2725 0.2725 0.9622 -18.1867 32.483)" class="st2" width="9.3" height="9.3"/>
		
			<rect x="100.7" y="68.2" transform="matrix(0.9622 -0.2725 0.2725 0.9622 -15.854 31.4582)" class="st2" width="9.3" height="9.3"/>
		
			<rect x="98.2" y="59.3" transform="matrix(0.9622 -0.2725 0.2725 0.9622 -13.5213 30.4333)" class="st2" width="9.3" height="9.3"/>
		
			<rect x="95.7" y="50.4" transform="matrix(0.9622 -0.2725 0.2725 0.9622 -11.1886 29.4085)" class="st2" width="9.3" height="9.3"/>
		
			<rect x="93.1" y="41.4" transform="matrix(0.9622 -0.2725 0.2725 0.9622 -8.8559 28.3837)" class="st2" width="9.3" height="9.3"/>
		
			<rect x="90.6" y="32.5" transform="matrix(0.9622 -0.2725 0.2725 0.9622 -6.5233 27.3588)" class="st1" width="9.3" height="9.3"/>
		
			<rect x="88.1" y="23.6" transform="matrix(0.9622 -0.2725 0.2725 0.9622 -4.1898 26.3336)" class="st1" width="9.3" height="9.3"/>
		
			<rect x="170.2" y="279.6" transform="matrix(0.9622 -0.2725 0.2725 0.9622 -70.8198 58.3898)" class="st3" width="9.3" height="9.3"/>
		
			<rect x="167.7" y="270.6" transform="matrix(0.9622 -0.2725 0.2725 0.9622 -68.4871 57.365)" class="st3" width="9.3" height="9.3"/>
		
			<rect x="165.1" y="261.7" transform="matrix(0.9622 -0.2725 0.2725 0.9622 -66.1537 56.3398)" class="st3" width="9.3" height="9.3"/>
		
			<rect x="162.6" y="252.8" transform="matrix(0.9622 -0.2725 0.2725 0.9622 -63.8202 55.3146)" class="st3" width="9.3" height="9.3"/>
		
			<rect x="160.1" y="243.9" transform="matrix(0.9622 -0.2725 0.2725 0.9622 -61.4875 54.2898)" class="st3" width="9.3" height="9.3"/>
		
			<rect x="157.6" y="235" transform="matrix(0.9622 -0.2725 0.2725 0.9622 -59.1548 53.2649)" class="st3" width="9.3" height="9.3"/>
		
			<rect x="155.1" y="226.1" transform="matrix(0.9622 -0.2725 0.2725 0.9622 -56.8222 52.2401)" class="st3" width="9.3" height="9.3"/>
		
			<rect x="152.5" y="217.2" transform="matrix(0.9622 -0.2725 0.2725 0.9622 -54.4895 51.2152)" class="st3" width="9.3" height="9.3"/>
		
			<rect x="150" y="208.3" transform="matrix(0.9622 -0.2725 0.2725 0.9622 -52.1568 50.1904)" class="st3" width="9.3" height="9.3"/>
		
			<rect x="147.5" y="199.3" transform="matrix(0.9622 -0.2725 0.2725 0.9622 -49.8233 49.1652)" class="st3" width="9.3" height="9.3"/>
		<rect x="145" y="190.4" transform="matrix(0.9622 -0.2725 0.2725 0.9622 -47.4899 48.14)" class="st3" width="9.3" height="9.3"/>
		
			<rect x="142.4" y="181.5" transform="matrix(0.9622 -0.2725 0.2725 0.9622 -45.1572 47.1152)" class="st3" width="9.3" height="9.3"/>
		
			<rect x="139.9" y="172.6" transform="matrix(0.9622 -0.2725 0.2725 0.9622 -42.8245 46.0904)" class="st3" width="9.3" height="9.3"/>
		
			<rect x="137.4" y="163.7" transform="matrix(0.9622 -0.2725 0.2725 0.9622 -40.4918 45.0655)" class="st3" width="9.3" height="9.3"/>
		
			<rect x="134.9" y="154.8" transform="matrix(0.9622 -0.2725 0.2725 0.9622 -38.1591 44.0407)" class="st3" width="9.3" height="9.3"/>
		
			<rect x="132.3" y="145.9" transform="matrix(0.9622 -0.2725 0.2725 0.9622 -35.8264 43.0158)" class="st3" width="9.3" height="9.3"/>
		
			<rect x="129.8" y="137" transform="matrix(0.9622 -0.2725 0.2725 0.9622 -33.493 41.9906)" class="st1" width="9.3" height="9.3"/>
		
			<rect x="127.3" y="128" transform="matrix(0.9622 -0.2725 0.2725 0.9622 -31.1595 40.9655)" class="st1" width="9.3" height="9.3"/>
		
			<rect x="124.8" y="119.1" transform="matrix(0.9622 -0.2725 0.2725 0.9622 -28.8268 39.9406)" class="st2" width="9.3" height="9.3"/>
		
			<rect x="122.2" y="110.2" transform="matrix(0.9622 -0.2725 0.2725 0.9622 -26.4941 38.9158)" class="st2" width="9.3" height="9.3"/>
		
			<rect x="119.7" y="101.3" transform="matrix(0.9622 -0.2725 0.2725 0.9622 -24.1615 37.8909)" class="st2" width="9.3" height="9.3"/>
		
			<rect x="117.2" y="92.4" transform="matrix(0.9622 -0.2725 0.2725 0.9622 -21.8288 36.8661)" class="st2" width="9.3" height="9.3"/>
		
			<rect x="114.7" y="83.5" transform="matrix(0.9622 -0.2725 0.2725 0.9622 -19.4953 35.8409)" class="st2" width="9.3" height="9.3"/>
		
			<rect x="112.1" y="74.6" transform="matrix(0.9622 -0.2725 0.2725 0.9622 -17.1618 34.8157)" class="st2" width="9.3" height="9.3"/>
		
			<rect x="109.6" y="65.7" transform="matrix(0.9622 -0.2725 0.2725 0.9622 -14.8292 33.7909)" class="st2" width="9.3" height="9.3"/>
		
			<rect x="107.1" y="56.7" transform="matrix(0.9622 -0.2725 0.2725 0.9622 -12.4965 32.766)" class="st2" width="9.3" height="9.3"/>
		
			<rect x="104.6" y="47.8" transform="matrix(0.9622 -0.2725 0.2725 0.9622 -10.1638 31.7412)" class="st2" width="9.3" height="9.3"/>
		<rect x="102" y="38.9" transform="matrix(0.9622 -0.2725 0.2725 0.9622 -7.8311 30.7163)" class="st2" width="9.3" height="9.3"/>
		<rect x="99.5" y="30" transform="matrix(0.9622 -0.2725 0.2725 0.9622 -5.4984 29.6915)" class="st2" width="9.3" height="9.3"/>
		<rect x="97" y="21.1" transform="matrix(0.9622 -0.2725 0.2725 0.9622 -3.165 28.6663)" class="st1" width="9.3" height="9.3"/>
		
			<rect x="179.1" y="277" transform="matrix(0.9622 -0.2725 0.2725 0.9622 -69.7946 60.7233)" class="st3" width="9.3" height="9.3"/>
		
			<rect x="176.6" y="268.1" transform="matrix(0.9622 -0.2725 0.2725 0.9622 -67.462 59.6984)" class="st3" width="9.3" height="9.3"/>
		
			<rect x="174.1" y="259.2" transform="matrix(0.9622 -0.2725 0.2725 0.9622 -65.1285 58.6733)" class="st3" width="9.3" height="9.3"/>
		
			<rect x="171.5" y="250.3" transform="matrix(0.9622 -0.2725 0.2725 0.9622 -62.795 57.6481)" class="st3" width="9.3" height="9.3"/>
		
			<rect x="169" y="241.4" transform="matrix(0.9622 -0.2725 0.2725 0.9622 -60.4624 56.6232)" class="st3" width="9.3" height="9.3"/>
		
			<rect x="166.5" y="232.5" transform="matrix(0.9622 -0.2725 0.2725 0.9622 -58.1297 55.5984)" class="st3" width="9.3" height="9.3"/>
		
			<rect x="164" y="223.6" transform="matrix(0.9622 -0.2725 0.2725 0.9622 -55.797 54.5735)" class="st3" width="9.3" height="9.3"/>
		
			<rect x="161.4" y="214.6" transform="matrix(0.9622 -0.2725 0.2725 0.9622 -53.4643 53.5487)" class="st3" width="9.3" height="9.3"/>
		
			<rect x="158.9" y="205.7" transform="matrix(0.9622 -0.2725 0.2725 0.9622 -51.1316 52.5239)" class="st3" width="9.3" height="9.3"/>
		
			<rect x="156.4" y="196.8" transform="matrix(0.9622 -0.2725 0.2725 0.9622 -48.7981 51.4987)" class="st3" width="9.3" height="9.3"/>
		
			<rect x="153.9" y="187.9" transform="matrix(0.9622 -0.2725 0.2725 0.9622 -46.4647 50.4735)" class="st3" width="9.3" height="9.3"/>
		
			<rect x="151.3" y="179" transform="matrix(0.9622 -0.2725 0.2725 0.9622 -44.132 49.4487)" class="st3" width="9.3" height="9.3"/>
		
			<rect x="148.8" y="170.1" transform="matrix(0.9622 -0.2725 0.2725 0.9622 -41.7993 48.4238)" class="st3" width="9.3" height="9.3"/>
		
			<rect x="146.3" y="161.2" transform="matrix(0.9622 -0.2725 0.2725 0.9622 -39.4666 47.399)" class="st3" width="9.3" height="9.3"/>
		
			<rect x="143.8" y="152.3" transform="matrix(0.9622 -0.2725 0.2725 0.9622 -37.1339 46.3741)" class="st3" width="9.3" height="9.3"/>
		
			<rect x="141.2" y="143.3" transform="matrix(0.9622 -0.2725 0.2725 0.9622 -34.8013 45.3493)" class="st3" width="9.3" height="9.3"/>
		
			<rect x="138.7" y="134.4" transform="matrix(0.9622 -0.2725 0.2725 0.9622 -32.4678 44.3241)" class="st1" width="9.3" height="9.3"/>
		
			<rect x="136.2" y="125.5" transform="matrix(0.9622 -0.2725 0.2725 0.9622 -30.1343 43.2989)" class="st1" width="9.3" height="9.3"/>
		
			<rect x="133.7" y="116.6" transform="matrix(0.9622 -0.2725 0.2725 0.9622 -27.8016 42.2741)" class="st2" width="9.3" height="9.3"/>
		
			<rect x="131.2" y="107.7" transform="matrix(0.9622 -0.2725 0.2725 0.9622 -25.469 41.2492)" class="st2" width="9.3" height="9.3"/>
		
			<rect x="128.6" y="98.8" transform="matrix(0.9622 -0.2725 0.2725 0.9622 -23.1363 40.2244)" class="st2" width="9.3" height="9.3"/>
		
			<rect x="126.1" y="89.9" transform="matrix(0.9622 -0.2725 0.2725 0.9622 -20.8036 39.1995)" class="st2" width="9.3" height="9.3"/>
		
			<rect x="123.6" y="81" transform="matrix(0.9622 -0.2725 0.2725 0.9622 -18.4701 38.1744)" class="st2" width="9.3" height="9.3"/>
		
			<rect x="121.1" y="72" transform="matrix(0.9622 -0.2725 0.2725 0.9622 -16.1367 37.1492)" class="st2" width="9.3" height="9.3"/>
		
			<rect x="118.5" y="63.1" transform="matrix(0.9622 -0.2725 0.2725 0.9622 -13.804 36.1243)" class="st2" width="9.3" height="9.3"/>
		
			<rect x="116" y="54.2" transform="matrix(0.9622 -0.2725 0.2725 0.9622 -11.4713 35.0995)" class="st2" width="9.3" height="9.3"/>
		
			<rect x="113.5" y="45.3" transform="matrix(0.9622 -0.2725 0.2725 0.9622 -9.1386 34.0746)" class="st2" width="9.3" height="9.3"/>
		<rect x="111" y="36.4" transform="matrix(0.9622 -0.2725 0.2725 0.9622 -6.8059 33.0498)" class="st4" width="9.3" height="9.3"/>
		
			<rect x="108.4" y="27.5" transform="matrix(0.9622 -0.2725 0.2725 0.9622 -4.4732 32.025)" class="st2" width="9.3" height="9.3"/>
		
			<rect x="105.9" y="18.6" transform="matrix(0.9622 -0.2725 0.2725 0.9622 -2.1398 30.9998)" class="st1" width="9.3" height="9.3"/>
		
			<rect x="185.5" y="265.6" transform="matrix(0.9622 -0.2725 0.2725 0.9622 -66.4368 62.0319)" class="st5" width="9.3" height="9.3"/>
		
			<rect x="183" y="256.7" transform="matrix(0.9622 -0.2725 0.2725 0.9622 -64.1033 61.0067)" class="st5" width="9.3" height="9.3"/>
		
			<rect x="180.5" y="247.8" transform="matrix(0.9622 -0.2725 0.2725 0.9622 -61.7699 59.9815)" class="st5" width="9.3" height="9.3"/>
		
			<rect x="177.9" y="238.9" transform="matrix(0.9622 -0.2725 0.2725 0.9622 -59.4372 58.9567)" class="st5" width="9.3" height="9.3"/>
		
			<rect x="175.4" y="229.9" transform="matrix(0.9622 -0.2725 0.2725 0.9622 -57.1045 57.9318)" class="st5" width="9.3" height="9.3"/>
		
			<rect x="172.9" y="221" transform="matrix(0.9622 -0.2725 0.2725 0.9622 -54.7718 56.907)" class="st5" width="9.3" height="9.3"/>
		
			<rect x="170.4" y="212.1" transform="matrix(0.9622 -0.2725 0.2725 0.9622 -52.4391 55.8822)" class="st5" width="9.3" height="9.3"/>
		
			<rect x="167.8" y="203.2" transform="matrix(0.9622 -0.2725 0.2725 0.9622 -50.1064 54.8573)" class="st5" width="9.3" height="9.3"/>
		
			<rect x="165.3" y="194.3" transform="matrix(0.9622 -0.2725 0.2725 0.9622 -47.773 53.8321)" class="st5" width="9.3" height="9.3"/>
		
			<rect x="162.8" y="185.4" transform="matrix(0.9622 -0.2725 0.2725 0.9622 -45.4395 52.807)" class="st5" width="9.3" height="9.3"/>
		
			<rect x="160.3" y="176.5" transform="matrix(0.9622 -0.2725 0.2725 0.9622 -43.1068 51.7821)" class="st5" width="9.3" height="9.3"/>
		
			<rect x="157.7" y="167.6" transform="matrix(0.9622 -0.2725 0.2725 0.9622 -40.7741 50.7573)" class="st5" width="9.3" height="9.3"/>
		
			<rect x="155.2" y="158.6" transform="matrix(0.9622 -0.2725 0.2725 0.9622 -38.4414 49.7324)" class="st5" width="9.3" height="9.3"/>
		
			<rect x="152.7" y="149.7" transform="matrix(0.9622 -0.2725 0.2725 0.9622 -36.1088 48.7076)" class="st5" width="9.3" height="9.3"/>
		
			<rect x="150.2" y="140.8" transform="matrix(0.9622 -0.2725 0.2725 0.9622 -33.7761 47.6827)" class="st5" width="9.3" height="9.3"/>
		
			<rect x="147.6" y="131.9" transform="matrix(0.9622 -0.2725 0.2725 0.9622 -31.4426 46.6576)" class="st1" width="9.3" height="9.3"/>
		
			<rect x="145.1" y="123" transform="matrix(0.9622 -0.2725 0.2725 0.9622 -29.1092 45.6324)" class="st1" width="9.3" height="9.3"/>
		
			<rect x="142.6" y="114.1" transform="matrix(0.9622 -0.2725 0.2725 0.9622 -26.7765 44.6075)" class="st2" width="9.3" height="9.3"/>
		
			<rect x="140.1" y="105.2" transform="matrix(0.9622 -0.2725 0.2725 0.9622 -24.4438 43.5827)" class="st2" width="9.3" height="9.3"/>
		
			<rect x="137.5" y="96.3" transform="matrix(0.9622 -0.2725 0.2725 0.9622 -22.1111 42.5578)" class="st2" width="9.3" height="9.3"/>
		<rect x="135" y="87.3" transform="matrix(0.9622 -0.2725 0.2725 0.9622 -19.7784 41.533)" class="st2" width="9.3" height="9.3"/>
		
			<rect x="132.5" y="78.4" transform="matrix(0.9622 -0.2725 0.2725 0.9622 -17.4449 40.5078)" class="st2" width="9.3" height="9.3"/>
		
			<rect x="130" y="69.5" transform="matrix(0.9622 -0.2725 0.2725 0.9622 -15.1115 39.4826)" class="st2" width="9.3" height="9.3"/>
		
			<rect x="127.4" y="60.6" transform="matrix(0.9622 -0.2725 0.2725 0.9622 -12.7788 38.4578)" class="st4" width="9.3" height="9.3"/>
		
			<rect x="124.9" y="51.7" transform="matrix(0.9622 -0.2725 0.2725 0.9622 -10.4461 37.4329)" class="st4" width="9.3" height="9.3"/>
		
			<rect x="122.4" y="42.8" transform="matrix(0.9622 -0.2725 0.2725 0.9622 -8.1134 36.4081)" class="st4" width="9.3" height="9.3"/>
		
			<rect x="119.9" y="33.9" transform="matrix(0.9622 -0.2725 0.2725 0.9622 -5.7807 35.3833)" class="st2" width="9.3" height="9.3"/>
		<rect x="117.4" y="25" transform="matrix(0.9622 -0.2725 0.2725 0.9622 -3.448 34.3584)" class="st1" width="9.3" height="9.3"/>
		<rect x="114.8" y="16" transform="matrix(0.9622 -0.2725 0.2725 0.9622 -1.1146 33.3332)" class="st1" width="9.3" height="9.3"/>
		
			<rect x="156.6" y="129.4" transform="matrix(0.9622 -0.2725 0.2725 0.9622 -30.4178 48.9902)" class="st1" width="9.3" height="9.3"/>
		
			<rect x="154" y="120.5" transform="matrix(0.9622 -0.2725 0.2725 0.9622 -28.0843 47.9651)" class="st1" width="9.3" height="9.3"/>
		
			<rect x="151.5" y="111.6" transform="matrix(0.9622 -0.2725 0.2725 0.9622 -25.7516 46.9402)" class="st2" width="9.3" height="9.3"/>
		
			<rect x="149" y="102.6" transform="matrix(0.9622 -0.2725 0.2725 0.9622 -23.4189 45.9154)" class="st2" width="9.3" height="9.3"/>
		
			<rect x="146.5" y="93.7" transform="matrix(0.9622 -0.2725 0.2725 0.9622 -21.0862 44.8905)" class="st2" width="9.3" height="9.3"/>
		
			<rect x="143.9" y="84.8" transform="matrix(0.9622 -0.2725 0.2725 0.9622 -18.7536 43.8657)" class="st4" width="9.3" height="9.3"/>
		
			<rect x="141.4" y="75.9" transform="matrix(0.9622 -0.2725 0.2725 0.9622 -16.4201 42.8405)" class="st4" width="9.3" height="9.3"/>
		
			<rect x="138.9" y="67" transform="matrix(0.9622 -0.2725 0.2725 0.9622 -14.0866 41.8153)" class="st4" width="9.3" height="9.3"/>
		
			<rect x="136.4" y="58.1" transform="matrix(0.9622 -0.2725 0.2725 0.9622 -11.754 40.7905)" class="st4" width="9.3" height="9.3"/>
		
			<rect x="133.8" y="49.2" transform="matrix(0.9622 -0.2725 0.2725 0.9622 -9.4213 39.7656)" class="st2" width="9.3" height="9.3"/>
		
			<rect x="131.3" y="40.3" transform="matrix(0.9622 -0.2725 0.2725 0.9622 -7.0886 38.7408)" class="st2" width="9.3" height="9.3"/>
		
			<rect x="128.8" y="31.4" transform="matrix(0.9622 -0.2725 0.2725 0.9622 -4.7559 37.716)" class="st1" width="9.3" height="9.3"/>
		
			<rect x="126.3" y="22.4" transform="matrix(0.9622 -0.2725 0.2725 0.9622 -2.4232 36.6911)" class="st1" width="9.3" height="9.3"/>
		
			<rect x="165.5" y="126.9" transform="matrix(0.9622 -0.2725 0.2725 0.9622 -29.3929 51.3229)" class="st1" width="9.3" height="9.3"/>
		
			<rect x="162.9" y="117.9" transform="matrix(0.9622 -0.2725 0.2725 0.9622 -27.0595 50.2977)" class="st1" width="9.3" height="9.3"/>
		
			<rect x="160.4" y="109" transform="matrix(0.9622 -0.2725 0.2725 0.9622 -24.7268 49.2729)" class="st2" width="9.3" height="9.3"/>
		
			<rect x="157.9" y="100.1" transform="matrix(0.9622 -0.2725 0.2725 0.9622 -22.3941 48.2481)" class="st2" width="9.3" height="9.3"/>
		
			<rect x="155.4" y="91.2" transform="matrix(0.9622 -0.2725 0.2725 0.9622 -20.0614 47.2232)" class="st4" width="9.3" height="9.3"/>
		
			<rect x="152.8" y="82.3" transform="matrix(0.9622 -0.2725 0.2725 0.9622 -17.7287 46.1984)" class="st4" width="9.3" height="9.3"/>
		
			<rect x="150.3" y="73.4" transform="matrix(0.9622 -0.2725 0.2725 0.9622 -15.3953 45.1732)" class="st4" width="9.3" height="9.3"/>
		
			<rect x="147.8" y="64.5" transform="matrix(0.9622 -0.2725 0.2725 0.9622 -13.0618 44.148)" class="st2" width="9.3" height="9.3"/>
		
			<rect x="145.3" y="55.6" transform="matrix(0.9622 -0.2725 0.2725 0.9622 -10.7291 43.1232)" class="st2" width="9.3" height="9.3"/>
		
			<rect x="142.7" y="46.7" transform="matrix(0.9622 -0.2725 0.2725 0.9622 -8.3964 42.0983)" class="st1" width="9.3" height="9.3"/>
		
			<rect x="140.2" y="37.7" transform="matrix(0.9622 -0.2725 0.2725 0.9622 -6.0637 41.0735)" class="st1" width="9.3" height="9.3"/>
		
			<rect x="137.7" y="28.8" transform="matrix(0.9622 -0.2725 0.2725 0.9622 -3.731 40.0486)" class="st1" width="9.3" height="9.3"/>
		
			<rect x="171.9" y="115.4" transform="matrix(0.9622 -0.2725 0.2725 0.9622 -26.0346 52.6304)" class="st1" width="9.3" height="9.3"/>
		
			<rect x="169.3" y="106.5" transform="matrix(0.9622 -0.2725 0.2725 0.9622 -23.7019 51.6056)" class="st1" width="9.3" height="9.3"/>
		
			<rect x="166.8" y="97.6" transform="matrix(0.9622 -0.2725 0.2725 0.9622 -21.3692 50.5807)" class="st2" width="9.3" height="9.3"/>
		
			<rect x="164.3" y="88.7" transform="matrix(0.9622 -0.2725 0.2725 0.9622 -19.0366 49.5559)" class="st2" width="9.3" height="9.3"/>
		
			<rect x="161.8" y="79.8" transform="matrix(0.9622 -0.2725 0.2725 0.9622 -16.7039 48.5311)" class="st2" width="9.3" height="9.3"/>
		
			<rect x="159.2" y="70.9" transform="matrix(0.9622 -0.2725 0.2725 0.9622 -14.3704 47.5059)" class="st2" width="9.3" height="9.3"/>
		
			<rect x="156.7" y="61.9" transform="matrix(0.9622 -0.2725 0.2725 0.9622 -12.037 46.4807)" class="st1" width="9.3" height="9.3"/>
		<rect x="154.2" y="53" transform="matrix(0.9622 -0.2725 0.2725 0.9622 -9.7043 45.4559)" class="st1" width="9.3" height="9.3"/>
		
			<rect x="151.7" y="44.1" transform="matrix(0.9622 -0.2725 0.2725 0.9622 -7.3716 44.431)" class="st1" width="9.3" height="9.3"/>
		
			<rect x="178.2" y="104" transform="matrix(0.9622 -0.2725 0.2725 0.9622 -22.6771 53.9383)" class="st1" width="9.3" height="9.3"/>
		
			<rect x="175.7" y="95.1" transform="matrix(0.9622 -0.2725 0.2725 0.9622 -20.3444 52.9134)" class="st1" width="9.3" height="9.3"/>
		
			<rect x="173.2" y="86.2" transform="matrix(0.9622 -0.2725 0.2725 0.9622 -18.0117 51.8886)" class="st1" width="9.3" height="9.3"/>
		
			<rect x="170.7" y="77.3" transform="matrix(0.9622 -0.2725 0.2725 0.9622 -15.679 50.8638)" class="st1" width="9.3" height="9.3"/>
		
			<rect x="168.1" y="68.3" transform="matrix(0.9622 -0.2725 0.2725 0.9622 -13.3456 49.8386)" class="st1" width="9.3" height="9.3"/>
		
			<rect x="165.6" y="59.4" transform="matrix(0.9622 -0.2725 0.2725 0.9622 -11.0121 48.8134)" class="st1" width="9.3" height="9.3"/>
	</g>
</g>
</svg>
